<svg width="1024" height="1024" viewBox="0 0 1024 1024" fill="none" xmlns="http://www.w3.org/2000/svg">
<path d="M931.478 575.167C952.419 830.081 712.976 1007.08 483.144 931.933C396.276 903.53 312.879 863.268 235.43 812.35C28.8683 676.55 16.1239 365.619 211.229 215.281C269.621 170.286 332.14 132.106 397.621 101.192C590.74 10.02 831.439 137.251 891.983 354.323C912.016 426.147 925.315 500.147 931.478 575.167Z" fill="url(#paint0_linear_3590_937)"/>
<path d="M743.415 781.931C663.721 912.254 489.687 937.874 376.981 835.791C272.288 740.967 189.992 621.822 137.792 489.543C81.1433 345.988 165.833 187.35 315.089 157.28C433.793 133.366 555.293 134.432 672.08 159.062C802.679 186.605 888.378 313.369 866.863 447.178C847.91 565.051 806.317 679.068 743.415 781.931Z" fill="url(#paint1_linear_3590_937)"/>
<path d="M769.593 696.994C746.99 772.074 708.42 832.628 605.236 812.313C502.052 791.998 340.238 713.185 236.169 590.579C184.43 529.624 189.081 437.188 246.511 382.143C349.405 283.522 476.935 220.54 611.371 198.187C678.68 186.995 743.981 226.602 768.41 293.433C816.627 425.347 805.412 578.009 769.593 696.994Z" fill="#33109F"/>
<path d="M416.26 357.984C361.086 357.984 316.358 402.712 316.358 457.886V599.415C316.358 617.806 331.267 632.716 349.659 632.716C368.05 632.716 382.96 617.806 382.96 599.415V474.537C382.96 446.949 405.323 424.586 432.911 424.586H466.212C475.407 424.586 482.862 432.04 482.862 441.236V566.114C482.862 584.506 497.771 599.415 516.163 599.415C534.554 599.415 549.464 584.506 549.464 566.114V441.236C549.464 432.04 556.918 424.586 566.114 424.586H591.09C618.677 424.586 641.041 446.949 641.041 474.537V599.415C641.041 617.806 655.95 632.716 674.342 632.716C692.733 632.716 707.642 617.806 707.642 599.415V457.886C707.642 402.712 662.915 357.984 607.74 357.984H416.26Z" fill="white"/>
<defs>
<linearGradient id="paint0_linear_3590_937" x1="406.932" y1="216.524" x2="877.466" y2="1035.11" gradientUnits="userSpaceOnUse">
<stop stop-color="#5DEAF4" stop-opacity="0"/>
<stop offset="1" stop-color="#5DEAF4"/>
</linearGradient>
<linearGradient id="paint1_linear_3590_937" x1="-221.471" y1="180.671" x2="996.984" y2="1016.08" gradientUnits="userSpaceOnUse">
<stop offset="0.182292" stop-color="#8146FF"/>
<stop offset="0.771826" stop-color="#7000FF" stop-opacity="0"/>
</linearGradient>
</defs>
</svg>
