<svg width="1029" height="955" viewBox="0 0 1029 955" fill="none" xmlns="http://www.w3.org/2000/svg">
<path d="M517.364 146.091C517.496 139.326 510.397 134.841 504.345 137.864L316.89 231.483C310.449 234.7 306.379 241.281 306.379 248.481V428.468C306.379 432.571 308.662 436.332 312.301 438.226L326.425 445.577L504.421 342.001C510.154 338.665 513.733 332.581 513.862 325.949L517.364 146.091Z" fill="#E8E8E9"/>
<path d="M760.075 571.314C774.573 563.746 791.855 563.746 806.352 571.314L948.408 645.472C955.571 649.212 955.571 659.462 948.407 663.202L806.352 737.359C791.855 744.927 774.573 744.927 760.075 737.359L618.02 663.202C610.857 659.462 610.857 649.212 618.02 645.472L760.075 571.314Z" fill="url(#paint0_linear_1711_676)"/>
<path d="M732.702 521.5L721.702 525.5L719.202 542.5L721.702 626L748.702 641H756.202L768.702 542.5L732.702 521.5Z" fill="#262153"/>
<path d="M797.702 526.031C797.702 520.475 794.631 515.374 789.72 512.774L770.833 502.775C766.381 500.418 761.042 500.454 756.622 502.87L720.702 522.5L754.702 541L755.702 645L793.545 624.277C796.108 622.873 797.702 620.183 797.702 617.26V526.031Z" fill="white"/>
<path fill-rule="evenodd" clip-rule="evenodd" d="M756.194 540.104L723.835 522.497L757.341 504.186C761.32 502.011 766.124 501.98 770.132 504.101L789.019 514.1C793.438 516.44 796.202 521.031 796.202 526.031V617.26C796.202 619.635 794.907 621.82 792.824 622.961L757.178 642.482L756.194 540.104ZM755.702 645L793.545 624.277C796.108 622.873 797.702 620.183 797.702 617.26V526.031C797.702 520.475 794.631 515.374 789.72 512.774L770.833 502.775C766.381 500.418 761.042 500.454 756.622 502.87L720.702 522.5L754.702 541L755.702 645Z" fill="#362F75"/>
<path fill-rule="evenodd" clip-rule="evenodd" d="M750.012 541.003L725.66 527.721C724.327 526.994 722.702 527.958 722.702 529.476V618.095C722.702 621.389 724.501 624.419 727.392 625.997L751.744 639.279C753.077 640.006 754.702 639.042 754.702 637.524V548.904C754.702 545.611 752.903 542.581 750.012 541.003ZM728.533 522.453C723.202 519.545 716.702 523.404 716.702 529.476V618.095C716.702 623.585 719.7 628.635 724.519 631.264L748.871 644.547C754.202 647.455 760.702 643.596 760.702 637.524V548.904C760.702 543.415 757.704 538.365 752.885 535.736L728.533 522.453Z" fill="white"/>
<path fill-rule="evenodd" clip-rule="evenodd" d="M752.167 537.053L727.815 523.77C723.483 521.407 718.202 524.542 718.202 529.476V618.095C718.202 623.036 720.901 627.581 725.238 629.947L749.59 643.23C753.921 645.593 759.202 642.458 759.202 637.524V548.904C759.202 543.964 756.504 539.419 752.167 537.053ZM728.533 522.453C723.202 519.545 716.702 523.404 716.702 529.476V618.095C716.702 623.585 719.7 628.635 724.519 631.264L748.871 644.547C754.202 647.455 760.702 643.596 760.702 637.524V548.904C760.702 543.415 757.704 538.365 752.885 535.736L728.533 522.453Z" fill="#362F75"/>
<path d="M725.702 533.218C725.702 532.461 726.509 531.979 727.175 532.336L749.594 544.368C750.892 545.065 751.702 546.419 751.702 547.893V554.737C751.702 555.494 750.895 555.976 750.229 555.619L726.756 543.021C726.107 542.672 725.702 541.995 725.702 541.259V533.218Z" fill="white"/>
<path d="M731.702 539C731.702 540.105 730.807 541 729.702 541C728.598 541 727.702 540.105 727.702 539C727.702 537.895 728.598 537 729.702 537C730.807 537 731.702 537.895 731.702 539Z" fill="#39C2D7"/>
<path d="M742.702 545C742.702 546.105 741.807 547 740.702 547C739.598 547 738.702 546.105 738.702 545C738.702 543.895 739.598 543 740.702 543C741.807 543 742.702 543.895 742.702 545Z" fill="#39C2D7"/>
<path d="M736.702 542C736.702 543.105 735.807 544 734.702 544C733.598 544 732.702 543.105 732.702 542C732.702 540.895 733.598 540 734.702 540C735.807 540 736.702 540.895 736.702 542Z" fill="#39C2D7"/>
<path d="M725.702 547.218C725.702 546.461 726.509 545.979 727.175 546.336L749.594 558.368C750.892 559.065 751.702 560.419 751.702 561.893V568.737C751.702 569.494 750.895 569.976 750.229 569.619L726.756 557.021C726.107 556.672 725.702 555.995 725.702 555.259V547.218Z" fill="white"/>
<path d="M731.702 553C731.702 554.105 730.807 555 729.702 555C728.598 555 727.702 554.105 727.702 553C727.702 551.895 728.598 551 729.702 551C730.807 551 731.702 551.895 731.702 553Z" fill="#39C2D7"/>
<path d="M742.702 559C742.702 560.105 741.807 561 740.702 561C739.598 561 738.702 560.105 738.702 559C738.702 557.895 739.598 557 740.702 557C741.807 557 742.702 557.895 742.702 559Z" fill="#39C2D7"/>
<path d="M749.702 563C749.702 564.105 748.807 565 747.702 565C746.598 565 745.702 564.105 745.702 563C745.702 561.895 746.598 561 747.702 561C748.807 561 749.702 561.895 749.702 563Z" fill="#39C2D7"/>
<path d="M725.702 561.218C725.702 560.461 726.509 559.979 727.175 560.336L749.594 572.368C750.892 573.065 751.702 574.419 751.702 575.893V582.737C751.702 583.494 750.895 583.976 750.229 583.619L726.756 571.021C726.107 570.672 725.702 569.995 725.702 569.259V561.218Z" fill="white"/>
<path d="M731.702 567C731.702 568.105 730.807 569 729.702 569C728.598 569 727.702 568.105 727.702 567C727.702 565.895 728.598 565 729.702 565C730.807 565 731.702 565.895 731.702 567Z" fill="#39C2D7"/>
<path d="M736.702 570C736.702 571.105 735.807 572 734.702 572C733.598 572 732.702 571.105 732.702 570C732.702 568.895 733.598 568 734.702 568C735.807 568 736.702 568.895 736.702 570Z" fill="#39C2D7"/>
<path d="M749.702 577C749.702 578.105 748.807 579 747.702 579C746.598 579 745.702 578.105 745.702 577C745.702 575.895 746.598 575 747.702 575C748.807 575 749.702 575.895 749.702 577Z" fill="#39C2D7"/>
<path d="M725.702 612.218C725.702 611.461 726.509 610.979 727.175 611.336L749.594 623.368C750.892 624.065 751.702 625.419 751.702 626.893V633.737C751.702 634.494 750.895 634.976 750.229 634.619L728.338 622.869C726.715 621.998 725.702 620.306 725.702 618.464V612.218Z" fill="white"/>
<path d="M731.702 618C731.702 619.105 730.807 620 729.702 620C728.598 620 727.702 619.105 727.702 618C727.702 616.895 728.598 616 729.702 616C730.807 616 731.702 616.895 731.702 618Z" fill="#39C2D7"/>
<path d="M742.702 624C742.702 625.105 741.807 626 740.702 626C739.598 626 738.702 625.105 738.702 624C738.702 622.895 739.598 622 740.702 622C741.807 622 742.702 622.895 742.702 624Z" fill="#39C2D7"/>
<path d="M784.702 597.5L773.702 601.5L771.202 618.5L773.702 702L800.702 717H808.202L820.702 618.5L784.702 597.5Z" fill="#262153"/>
<path d="M849.702 602.031C849.702 596.475 846.631 591.374 841.72 588.774L822.833 578.775C818.381 576.418 813.042 576.454 808.622 578.87L772.702 598.5L806.702 617L807.702 721L845.545 700.277C848.108 698.873 849.702 696.183 849.702 693.26V602.031Z" fill="white"/>
<path fill-rule="evenodd" clip-rule="evenodd" d="M808.194 616.104L775.835 598.497L809.341 580.186C813.32 578.011 818.124 577.98 822.132 580.101L841.019 590.1C845.438 592.44 848.202 597.031 848.202 602.031V693.26C848.202 695.635 846.907 697.82 844.824 698.961L809.178 718.482L808.194 616.104ZM807.702 721L845.545 700.277C848.108 698.873 849.702 696.183 849.702 693.26V602.031C849.702 596.475 846.631 591.374 841.72 588.774L822.833 578.775C818.381 576.418 813.042 576.454 808.622 578.87L772.702 598.5L806.702 617L807.702 721Z" fill="#362F75"/>
<path d="M771.702 605.476C771.702 601.681 775.765 599.269 779.096 601.087L803.448 614.37C807.304 616.473 809.702 620.513 809.702 624.904V713.524C809.702 717.319 805.64 719.731 802.308 717.913L777.956 704.63C774.101 702.527 771.702 698.487 771.702 694.095V605.476Z" stroke="white" stroke-width="6"/>
<path fill-rule="evenodd" clip-rule="evenodd" d="M804.167 613.053L779.815 599.77C775.483 597.407 770.202 600.542 770.202 605.476V694.095C770.202 699.036 772.901 703.581 777.238 705.947L801.59 719.23C805.921 721.593 811.202 718.458 811.202 713.524V624.904C811.202 619.964 808.504 615.419 804.167 613.053ZM780.533 598.453C775.202 595.545 768.702 599.404 768.702 605.476V694.095C768.702 699.585 771.7 704.635 776.519 707.264L800.871 720.547C806.202 723.455 812.702 719.596 812.702 713.524V624.904C812.702 619.415 809.704 614.365 804.885 611.736L780.533 598.453Z" fill="#362F75"/>
<path d="M777.702 609.218C777.702 608.461 778.509 607.979 779.175 608.336L801.594 620.368C802.892 621.065 803.702 622.419 803.702 623.893V630.737C803.702 631.494 802.895 631.976 802.229 631.619L778.756 619.021C778.107 618.672 777.702 617.995 777.702 617.259V609.218Z" fill="white"/>
<path d="M783.702 615C783.702 616.105 782.807 617 781.702 617C780.598 617 779.702 616.105 779.702 615C779.702 613.895 780.598 613 781.702 613C782.807 613 783.702 613.895 783.702 615Z" fill="#39C2D7"/>
<path d="M794.702 621C794.702 622.105 793.807 623 792.702 623C791.598 623 790.702 622.105 790.702 621C790.702 619.895 791.598 619 792.702 619C793.807 619 794.702 619.895 794.702 621Z" fill="#39C2D7"/>
<path d="M788.702 618C788.702 619.105 787.807 620 786.702 620C785.598 620 784.702 619.105 784.702 618C784.702 616.895 785.598 616 786.702 616C787.807 616 788.702 616.895 788.702 618Z" fill="#39C2D7"/>
<path d="M777.702 623.218C777.702 622.461 778.509 621.979 779.175 622.336L801.594 634.368C802.892 635.065 803.702 636.419 803.702 637.893V644.737C803.702 645.494 802.895 645.976 802.229 645.619L778.756 633.021C778.107 632.672 777.702 631.995 777.702 631.259V623.218Z" fill="white"/>
<circle cx="781.702" cy="629" r="2" fill="#39C2D7"/>
<circle cx="792.702" cy="635" r="2" fill="#39C2D7"/>
<circle cx="799.702" cy="639" r="2" fill="#39C2D7"/>
<path d="M777.702 637.218C777.702 636.461 778.509 635.979 779.175 636.336L801.594 648.368C802.892 649.065 803.702 650.419 803.702 651.893V658.737C803.702 659.494 802.895 659.976 802.229 659.619L778.756 647.021C778.107 646.672 777.702 645.995 777.702 645.259V637.218Z" fill="white"/>
<circle cx="781.702" cy="643" r="2" fill="#39C2D7"/>
<circle cx="786.702" cy="646" r="2" fill="#39C2D7"/>
<circle cx="799.702" cy="653" r="2" fill="#39C2D7"/>
<path d="M777.702 688.218C777.702 687.461 778.509 686.979 779.175 687.336L801.594 699.368C802.892 700.065 803.702 701.419 803.702 702.893V709.737C803.702 710.494 802.895 710.976 802.229 710.619L780.338 698.869C778.715 697.998 777.702 696.306 777.702 694.464V688.218Z" fill="white"/>
<circle cx="781.702" cy="694" r="2" fill="#39C2D7"/>
<circle cx="792.702" cy="700" r="2" fill="#39C2D7"/>
<path d="M893.436 544.386C895.657 542.472 895.914 539.11 894.01 536.876C892.106 534.643 888.762 534.384 886.54 536.299L876.427 545.014C874.728 546.478 874.127 548.856 874.925 550.958L879.554 563.146L853.089 556.332L832.393 537.374C830.23 535.393 826.879 535.549 824.909 537.724C822.939 539.898 823.094 543.267 825.257 545.248L846.929 565.1C847.569 565.686 848.343 566.106 849.183 566.322L884.183 575.334L884.69 576.67V584.261C884.688 584.356 884.688 584.451 884.69 584.546V595.271L871.794 608.236C870.8 609.235 870.242 610.59 870.242 612.002V652.674C870.242 655.616 872.614 658 875.54 658C878.466 658 880.837 655.616 880.837 652.674V614.209L893.734 601.243C894.727 600.244 895.285 598.889 895.285 597.477V588.169L923.058 578.288C924.297 577.848 925.329 576.96 925.953 575.797L942.327 545.293C943.717 542.704 942.756 539.473 940.181 538.076C937.607 536.679 934.393 537.645 933.003 540.234L917.599 568.931L895.285 576.869V575.82C895.287 575.732 895.287 575.643 895.285 575.555V571.331C895.285 569.207 894.036 567.318 892.158 566.472L886.154 550.661L893.436 544.386Z" fill="white"/>
<path fill-rule="evenodd" clip-rule="evenodd" d="M881.985 565.321L852.352 557.691L831.38 538.48C829.831 537.061 827.433 537.172 826.02 538.731C824.604 540.294 824.717 542.719 826.27 544.142L847.942 563.993C848.402 564.414 848.956 564.715 849.557 564.87L885.309 574.075L886.19 576.395V584.281L886.19 584.301C886.188 584.369 886.188 584.438 886.19 584.506L886.19 584.526V595.89L872.857 609.294C872.144 610.011 871.742 610.985 871.742 612.002V652.674C871.742 654.795 873.45 656.5 875.54 656.5C877.63 656.5 879.337 654.795 879.337 652.674V613.59L892.67 600.185C893.383 599.468 893.785 598.494 893.785 597.477V587.11L922.555 576.875C923.442 576.56 924.183 575.923 924.631 575.087L941.006 544.583C942.007 542.719 941.311 540.396 939.466 539.395C937.625 538.396 935.323 539.083 934.325 540.943L918.647 570.15L893.785 578.995V575.801L893.786 575.782C893.787 575.719 893.787 575.656 893.786 575.592L893.785 575.574V571.331C893.785 569.801 892.885 568.445 891.542 567.839L890.976 567.584L884.378 550.211L892.456 543.25C894.052 541.875 894.238 539.456 892.869 537.849C891.503 536.248 889.11 536.064 887.52 537.435L877.406 546.15C876.187 547.201 875.753 548.912 876.328 550.425L881.985 565.321ZM895.285 571.331C895.285 569.207 894.036 567.318 892.158 566.472L886.154 550.661L893.436 544.386C895.657 542.472 895.914 539.11 894.01 536.876C892.106 534.643 888.762 534.384 886.54 536.299L876.427 545.014C874.728 546.478 874.127 548.856 874.925 550.958L879.554 563.146L853.089 556.332L832.393 537.374C830.23 535.393 826.879 535.549 824.909 537.724C822.939 539.898 823.094 543.267 825.257 545.248L846.929 565.1C847.569 565.686 848.343 566.106 849.183 566.322L884.183 575.334L884.69 576.67V584.261C884.688 584.356 884.688 584.451 884.69 584.546V595.271L871.794 608.236C870.8 609.235 870.242 610.59 870.242 612.002V652.674C870.242 655.616 872.614 658 875.54 658C878.466 658 880.837 655.616 880.837 652.674V614.209L893.734 601.243C894.727 600.244 895.285 598.889 895.285 597.477V588.169L923.058 578.288C924.297 577.848 925.329 576.96 925.953 575.797L942.327 545.293C943.717 542.704 942.756 539.473 940.181 538.076C937.607 536.679 934.393 537.645 933.003 540.234L917.599 568.931L895.285 576.869V575.82C895.287 575.732 895.287 575.643 895.285 575.555V571.331Z" fill="#362F75"/>
<path d="M922.861 523.191C922.861 544.09 905.919 561.032 885.02 561.032C864.121 561.032 847.179 544.09 847.179 523.191C847.179 502.292 864.121 485.35 885.02 485.35C905.919 485.35 922.861 502.292 922.861 523.191Z" fill="white"/>
<path fill-rule="evenodd" clip-rule="evenodd" d="M885.02 559.532C905.091 559.532 921.361 543.262 921.361 523.191C921.361 503.12 905.091 486.85 885.02 486.85C864.949 486.85 848.679 503.12 848.679 523.191C848.679 543.262 864.949 559.532 885.02 559.532ZM885.02 561.032C905.919 561.032 922.861 544.09 922.861 523.191C922.861 502.292 905.919 485.35 885.02 485.35C864.121 485.35 847.179 502.292 847.179 523.191C847.179 544.09 864.121 561.032 885.02 561.032Z" fill="#362F75"/>
<path d="M960.702 535.016C960.702 544.813 952.76 552.754 942.964 552.754C933.167 552.754 925.226 544.813 925.226 535.016C925.226 525.22 933.167 517.278 942.964 517.278C952.76 517.278 960.702 525.22 960.702 535.016Z" fill="white"/>
<path fill-rule="evenodd" clip-rule="evenodd" d="M942.964 551.254C951.932 551.254 959.202 543.984 959.202 535.016C959.202 526.048 951.932 518.778 942.964 518.778C933.996 518.778 926.726 526.048 926.726 535.016C926.726 543.984 933.996 551.254 942.964 551.254ZM942.964 552.754C952.76 552.754 960.702 544.813 960.702 535.016C960.702 525.22 952.76 517.278 942.964 517.278C933.167 517.278 925.226 525.22 925.226 535.016C925.226 544.813 933.167 552.754 942.964 552.754Z" fill="#362F75"/>
<path d="M948.877 555.711C948.877 571.059 936.435 583.5 921.088 583.5C905.74 583.5 893.298 571.059 893.298 555.711C893.298 540.363 905.74 527.921 921.088 527.921C936.435 527.921 948.877 540.363 948.877 555.711Z" fill="white"/>
<path fill-rule="evenodd" clip-rule="evenodd" d="M921.088 582C935.607 582 947.377 570.23 947.377 555.711C947.377 541.191 935.607 529.421 921.088 529.421C906.568 529.421 894.798 541.191 894.798 555.711C894.798 570.23 906.568 582 921.088 582ZM921.088 583.5C936.435 583.5 948.877 571.059 948.877 555.711C948.877 540.363 936.435 527.921 921.088 527.921C905.74 527.921 893.298 540.363 893.298 555.711C893.298 571.059 905.74 583.5 921.088 583.5Z" fill="#362F75"/>
<path d="M842.448 535.016C842.448 543.507 835.565 550.389 827.075 550.389C818.585 550.389 811.702 543.507 811.702 535.016C811.702 526.526 818.585 519.643 827.075 519.643C835.565 519.643 842.448 526.526 842.448 535.016Z" fill="white"/>
<path fill-rule="evenodd" clip-rule="evenodd" d="M827.075 548.889C834.737 548.889 840.948 542.678 840.948 535.016C840.948 527.354 834.737 521.143 827.075 521.143C819.413 521.143 813.202 527.354 813.202 535.016C813.202 542.678 819.413 548.889 827.075 548.889ZM827.075 550.389C835.565 550.389 842.448 543.507 842.448 535.016C842.448 526.526 835.565 519.643 827.075 519.643C818.585 519.643 811.702 526.526 811.702 535.016C811.702 543.507 818.585 550.389 827.075 550.389Z" fill="#362F75"/>
<path d="M881.472 548.024C881.472 562.392 869.824 574.04 855.456 574.04C841.088 574.04 829.44 562.392 829.44 548.024C829.44 533.656 841.088 522.008 855.456 522.008C869.824 522.008 881.472 533.656 881.472 548.024Z" fill="white"/>
<path fill-rule="evenodd" clip-rule="evenodd" d="M855.456 572.54C868.996 572.54 879.972 561.564 879.972 548.024C879.972 534.484 868.996 523.508 855.456 523.508C841.917 523.508 830.94 534.484 830.94 548.024C830.94 561.564 841.917 572.54 855.456 572.54ZM855.456 574.04C869.824 574.04 881.472 562.392 881.472 548.024C881.472 533.656 869.824 522.008 855.456 522.008C841.088 522.008 829.44 533.656 829.44 548.024C829.44 562.392 841.088 574.04 855.456 574.04Z" fill="#362F75"/>
<path d="M566.547 367.58C569.759 365.103 574.397 365.866 576.646 369.24L649.301 478.227C652.215 482.6 649.453 488.505 644.229 489.07L491.622 505.576C489.676 505.786 488.085 504.051 488.462 502.131C488.84 500.212 487.25 498.476 485.305 498.685L445.148 503.001C439.408 503.618 435.43 497.412 438.389 492.454L479.536 423.494C482.169 419.082 488.498 418.915 491.361 423.181L491.711 423.703C495.186 428.882 503.188 427.274 504.392 421.154L505.193 417.084C505.521 415.418 506.442 413.928 507.787 412.892L566.547 367.58Z" fill="#EFEFEF"/>
<path d="M533.228 483.781L691.206 510.005L666.709 542.567C665.833 543.731 664.713 544.69 663.428 545.377L553.629 603.996C541.007 610.735 525.747 610.219 513.609 602.642L428.741 549.666C423.2 546.206 418.939 541.033 416.606 534.932L407.072 510L533.228 483.781Z" fill="url(#paint1_linear_1711_676)"/>
<path d="M519.702 439.5L621.702 464L686.096 504.623C689.993 507.082 689.779 512.835 685.709 514.997L653.702 532L621.702 562L537.56 583.868C534.791 584.588 531.846 584.087 529.47 582.492L464.702 539L411.214 515.62C406.428 513.528 406.415 506.744 411.193 504.634L464.702 481L519.702 439.5Z" fill="#EFEFEF"/>
<path d="M297.981 560.794C306.679 556.254 317.048 556.254 325.746 560.794L421.22 610.635C428.383 614.374 428.383 624.625 421.22 628.364L334.552 673.608C333.119 674.356 333.119 676.406 334.552 677.154L341.22 680.635C348.383 684.374 348.383 694.625 341.22 698.364L245.746 748.204C237.048 752.745 226.679 752.745 217.981 748.204L122.507 698.364C115.344 694.625 115.344 684.374 122.507 680.635L125.02 679.323C126.453 678.575 126.453 676.525 125.02 675.777L72.5071 648.364C65.344 644.625 65.344 634.374 72.5071 630.635L167.981 580.794C176.679 576.254 187.048 576.254 195.746 580.794L212.899 589.748C222.178 594.592 233.239 594.592 242.517 589.748L297.981 560.794Z" fill="#EFEFEF"/>
<mask id="mask0_1711_676" style="mask-type:alpha" maskUnits="userSpaceOnUse" x="67" y="557" width="360" height="195">
<path d="M297.981 560.794C306.679 556.254 317.048 556.254 325.746 560.794L421.22 610.635C428.383 614.374 428.383 624.625 421.22 628.364L334.552 673.608C333.119 674.356 333.119 676.406 334.552 677.154L341.22 680.635C348.383 684.374 348.383 694.625 341.22 698.364L245.746 748.204C237.048 752.745 226.679 752.745 217.981 748.204L122.507 698.364C115.344 694.625 115.344 684.374 122.507 680.635L125.02 679.323C126.453 678.575 126.453 676.525 125.02 675.777L72.5071 648.364C65.344 644.625 65.344 634.374 72.5071 630.635L167.981 580.794C176.679 576.254 187.048 576.254 195.746 580.794L212.899 589.748C222.178 594.592 233.239 594.592 242.517 589.748L297.981 560.794Z" fill="#33A47B"/>
</mask>
<g mask="url(#mask0_1711_676)">
<path d="M626.701 621.5C626.701 682.527 535.143 732 422.201 732C309.259 732 217.701 682.527 217.701 621.5C217.701 560.473 309.259 511 422.201 511C535.143 511 626.701 560.473 626.701 621.5Z" fill="#BCE4EB"/>
<path d="M586.701 605.5C586.701 646.645 524.693 680 448.201 680C371.71 680 309.701 646.645 309.701 605.5C309.701 564.355 371.71 531 448.201 531C524.693 531 586.701 564.355 586.701 605.5Z" fill="#483DAE"/>
</g>
<path d="M334.511 586.238H342.892V614.809C342.892 617.124 341.016 619 338.701 619C336.387 619 334.511 617.124 334.511 614.809V586.238Z" fill="white"/>
<path d="M339.082 544.333C339.082 544.333 307.118 575.19 304.052 578.238C300.987 581.286 298.701 584.292 298.701 587.762C298.701 598.282 316.61 606.809 338.701 606.809C360.793 606.809 378.701 598.282 378.701 587.762C378.701 584.292 376.415 581.286 373.35 578.238C370.284 575.19 339.082 544.333 339.082 544.333Z" fill="white"/>
<path fill-rule="evenodd" clip-rule="evenodd" d="M305.11 579.302C302.05 582.344 300.201 584.961 300.201 587.762C300.201 592.109 303.954 596.492 311.062 599.876C318.058 603.208 327.828 605.309 338.701 605.309C349.574 605.309 359.345 603.208 366.341 599.876C373.448 596.492 377.201 592.109 377.201 587.762C377.201 584.961 375.352 582.344 372.292 579.302C370.761 577.78 362.196 569.306 354.012 561.209C349.92 557.162 345.924 553.209 342.951 550.269L339.07 546.43L338.745 546.744C337.865 547.594 336.604 548.811 335.082 550.281C332.037 553.222 327.946 557.174 323.759 561.221C315.378 569.323 306.633 577.788 305.11 579.302ZM339.082 544.333C339.082 544.333 307.118 575.19 304.052 578.238C300.987 581.286 298.701 584.292 298.701 587.762C298.701 598.282 316.61 606.809 338.701 606.809C360.793 606.809 378.701 598.282 378.701 587.762C378.701 584.292 376.415 581.286 373.35 578.238C370.284 575.19 339.082 544.333 339.082 544.333Z" fill="#362F75"/>
<path d="M338.995 529.095C338.995 529.095 314.337 552.426 311.972 554.73C309.607 557.035 307.844 559.308 307.844 561.931C307.844 569.885 321.659 576.333 338.701 576.333C355.743 576.333 369.558 569.885 369.558 561.931C369.558 559.308 367.795 557.035 365.43 554.73C363.065 552.426 338.995 529.095 338.995 529.095Z" fill="white"/>
<path fill-rule="evenodd" clip-rule="evenodd" d="M313.019 555.805C310.655 558.108 309.344 559.989 309.344 561.931C309.344 564.979 312.05 568.205 317.516 570.756C322.86 573.25 330.349 574.833 338.701 574.833C347.053 574.833 354.542 573.25 359.886 570.756C365.352 568.205 368.058 564.979 368.058 561.931C368.058 559.989 366.747 558.108 364.383 555.805C363.202 554.654 356.596 548.248 350.281 542.126C347.125 539.065 344.042 536.077 341.749 533.854L338.982 531.172L338.962 531.192C338.283 531.834 337.31 532.754 336.136 533.866C333.788 536.089 330.632 539.077 327.402 542.138C320.935 548.265 314.191 554.662 313.019 555.805ZM338.995 529.095C338.995 529.095 314.337 552.426 311.972 554.73C309.607 557.035 307.844 559.308 307.844 561.931C307.844 569.885 321.659 576.333 338.701 576.333C355.743 576.333 369.558 569.885 369.558 561.931C369.558 559.308 367.795 557.035 365.43 554.73C363.065 552.426 338.995 529.095 338.995 529.095Z" fill="#362F75"/>
<path d="M338.879 515.381C338.879 515.381 323.962 529.681 322.531 531.093C321.101 532.505 320.034 533.899 320.034 535.506C320.034 540.381 328.392 544.333 338.701 544.333C349.01 544.333 357.368 540.381 357.368 535.506C357.368 533.899 356.301 532.505 354.87 531.093C353.44 529.681 338.879 515.381 338.879 515.381Z" fill="white"/>
<path fill-rule="evenodd" clip-rule="evenodd" d="M323.585 532.16C322.159 533.569 321.534 534.572 321.534 535.506C321.534 537.025 322.891 538.854 326.143 540.392C329.279 541.875 333.717 542.833 338.701 542.833C343.684 542.833 348.123 541.875 351.259 540.392C354.511 538.854 355.868 537.025 355.868 535.506C355.868 534.572 355.243 533.569 353.816 532.16C353.103 531.456 349.107 527.53 345.287 523.777C343.377 521.902 341.513 520.07 340.125 518.707L338.866 517.471L337.564 518.72C336.143 520.082 334.234 521.914 332.28 523.789C328.365 527.547 324.291 531.464 323.585 532.16ZM338.879 515.381C338.879 515.381 323.962 529.681 322.531 531.093C321.101 532.505 320.034 533.899 320.034 535.506C320.034 540.381 328.392 544.333 338.701 544.333C349.01 544.333 357.368 540.381 357.368 535.506C357.368 533.899 356.301 532.505 354.87 531.093C353.44 529.681 338.879 515.381 338.879 515.381Z" fill="#362F75"/>
<path d="M137.701 544.5L126.701 548.5L124.201 565.5L126.701 649L153.701 664H161.201L173.701 565.5L137.701 544.5Z" fill="#262153"/>
<path d="M202.701 549.031C202.701 543.475 199.63 538.374 194.719 535.774L175.832 525.775C171.38 523.418 166.041 523.454 161.621 525.87L125.701 545.5L159.701 564L160.701 668L198.544 647.277C201.107 645.873 202.701 643.183 202.701 640.26V549.031Z" fill="white"/>
<path fill-rule="evenodd" clip-rule="evenodd" d="M161.193 563.104L128.834 545.497L162.34 527.186C166.319 525.011 171.123 524.98 175.131 527.101L194.018 537.1C198.437 539.44 201.201 544.031 201.201 549.031V640.26C201.201 642.635 199.906 644.82 197.823 645.961L162.177 665.482L161.193 563.104ZM160.701 668L198.544 647.277C201.107 645.873 202.701 643.183 202.701 640.26V549.031C202.701 543.475 199.63 538.374 194.719 535.774L175.832 525.775C171.38 523.418 166.041 523.454 161.621 525.87L125.701 545.5L159.701 564L160.701 668Z" fill="#362F75"/>
<path fill-rule="evenodd" clip-rule="evenodd" d="M155.011 564.003L130.659 550.721C129.326 549.994 127.701 550.958 127.701 552.476V641.095C127.701 644.389 129.5 647.419 132.391 648.997L156.743 662.279C158.076 663.006 159.701 662.042 159.701 660.524V571.904C159.701 568.611 157.902 565.581 155.011 564.003ZM133.532 545.453C128.201 542.545 121.701 546.404 121.701 552.476V641.095C121.701 646.585 124.699 651.635 129.518 654.264L153.87 667.547C159.201 670.455 165.701 666.596 165.701 660.524V571.904C165.701 566.415 162.703 561.365 157.884 558.736L133.532 545.453Z" fill="white"/>
<path fill-rule="evenodd" clip-rule="evenodd" d="M157.166 560.053L132.814 546.77C128.482 544.407 123.201 547.542 123.201 552.476V641.095C123.201 646.036 125.9 650.581 130.237 652.947L154.589 666.23C158.92 668.593 164.201 665.458 164.201 660.524V571.904C164.201 566.964 161.503 562.419 157.166 560.053ZM133.532 545.453C128.201 542.545 121.701 546.404 121.701 552.476V641.095C121.701 646.585 124.699 651.635 129.518 654.264L153.87 667.547C159.201 670.455 165.701 666.596 165.701 660.524V571.904C165.701 566.415 162.703 561.365 157.884 558.736L133.532 545.453Z" fill="#362F75"/>
<path d="M130.701 556.218C130.701 555.461 131.508 554.979 132.174 555.336L154.593 567.368C155.891 568.065 156.701 569.419 156.701 570.893V577.737C156.701 578.494 155.894 578.976 155.228 578.619L131.755 566.021C131.106 565.672 130.701 564.995 130.701 564.259V556.218Z" fill="white"/>
<path d="M136.701 562C136.701 563.105 135.806 564 134.701 564C133.597 564 132.701 563.105 132.701 562C132.701 560.895 133.597 560 134.701 560C135.806 560 136.701 560.895 136.701 562Z" fill="#39C2D7"/>
<path d="M147.701 568C147.701 569.105 146.806 570 145.701 570C144.597 570 143.701 569.105 143.701 568C143.701 566.895 144.597 566 145.701 566C146.806 566 147.701 566.895 147.701 568Z" fill="#39C2D7"/>
<path d="M141.701 565C141.701 566.105 140.806 567 139.701 567C138.597 567 137.701 566.105 137.701 565C137.701 563.895 138.597 563 139.701 563C140.806 563 141.701 563.895 141.701 565Z" fill="#39C2D7"/>
<path d="M130.701 570.218C130.701 569.461 131.508 568.979 132.174 569.336L154.593 581.368C155.891 582.065 156.701 583.419 156.701 584.893V591.737C156.701 592.494 155.894 592.976 155.228 592.619L131.755 580.021C131.106 579.672 130.701 578.995 130.701 578.259V570.218Z" fill="white"/>
<path d="M136.701 576C136.701 577.105 135.806 578 134.701 578C133.597 578 132.701 577.105 132.701 576C132.701 574.895 133.597 574 134.701 574C135.806 574 136.701 574.895 136.701 576Z" fill="#39C2D7"/>
<path d="M147.701 582C147.701 583.105 146.806 584 145.701 584C144.597 584 143.701 583.105 143.701 582C143.701 580.895 144.597 580 145.701 580C146.806 580 147.701 580.895 147.701 582Z" fill="#39C2D7"/>
<path d="M154.701 586C154.701 587.105 153.806 588 152.701 588C151.597 588 150.701 587.105 150.701 586C150.701 584.895 151.597 584 152.701 584C153.806 584 154.701 584.895 154.701 586Z" fill="#39C2D7"/>
<path d="M130.701 584.218C130.701 583.461 131.508 582.979 132.174 583.336L154.593 595.368C155.891 596.065 156.701 597.419 156.701 598.893V605.737C156.701 606.494 155.894 606.976 155.228 606.619L131.755 594.021C131.106 593.672 130.701 592.995 130.701 592.259V584.218Z" fill="white"/>
<path d="M136.701 590C136.701 591.105 135.806 592 134.701 592C133.597 592 132.701 591.105 132.701 590C132.701 588.895 133.597 588 134.701 588C135.806 588 136.701 588.895 136.701 590Z" fill="#39C2D7"/>
<path d="M141.701 593C141.701 594.105 140.806 595 139.701 595C138.597 595 137.701 594.105 137.701 593C137.701 591.895 138.597 591 139.701 591C140.806 591 141.701 591.895 141.701 593Z" fill="#39C2D7"/>
<path d="M154.701 600C154.701 601.105 153.806 602 152.701 602C151.597 602 150.701 601.105 150.701 600C150.701 598.895 151.597 598 152.701 598C153.806 598 154.701 598.895 154.701 600Z" fill="#39C2D7"/>
<path d="M130.701 635.218C130.701 634.461 131.508 633.979 132.174 634.336L154.593 646.368C155.891 647.065 156.701 648.419 156.701 649.893V656.737C156.701 657.494 155.894 657.976 155.228 657.619L133.337 645.869C131.714 644.998 130.701 643.306 130.701 641.464V635.218Z" fill="white"/>
<path d="M136.701 641C136.701 642.105 135.806 643 134.701 643C133.597 643 132.701 642.105 132.701 641C132.701 639.895 133.597 639 134.701 639C135.806 639 136.701 639.895 136.701 641Z" fill="#39C2D7"/>
<path d="M147.701 647C147.701 648.105 146.806 649 145.701 649C144.597 649 143.701 648.105 143.701 647C143.701 645.895 144.597 645 145.701 645C146.806 645 147.701 645.895 147.701 647Z" fill="#39C2D7"/>
<path d="M197.701 574.5L186.701 578.5L184.201 595.5L186.701 679L213.701 694H221.201L233.701 595.5L197.701 574.5Z" fill="#262153"/>
<path d="M262.701 579.031C262.701 573.475 259.63 568.374 254.719 565.774L235.832 555.775C231.38 553.418 226.041 553.454 221.621 555.87L185.701 575.5L219.701 594L220.701 698L258.544 677.277C261.107 675.873 262.701 673.183 262.701 670.26V579.031Z" fill="white"/>
<path fill-rule="evenodd" clip-rule="evenodd" d="M221.193 593.104L188.834 575.497L222.34 557.186C226.319 555.011 231.123 554.98 235.131 557.101L254.018 567.1C258.437 569.44 261.201 574.031 261.201 579.031V670.26C261.201 672.635 259.906 674.82 257.823 675.961L222.177 695.482L221.193 593.104ZM220.701 698L258.544 677.277C261.107 675.873 262.701 673.183 262.701 670.26V579.031C262.701 573.475 259.63 568.374 254.719 565.774L235.832 555.775C231.38 553.418 226.041 553.454 221.621 555.87L185.701 575.5L219.701 594L220.701 698Z" fill="#362F75"/>
<path fill-rule="evenodd" clip-rule="evenodd" d="M215.011 594.003L190.659 580.721C189.326 579.994 187.701 580.958 187.701 582.476V671.095C187.701 674.389 189.5 677.419 192.391 678.997L216.743 692.279C218.076 693.006 219.701 692.042 219.701 690.524V601.904C219.701 598.611 217.902 595.581 215.011 594.003ZM193.532 575.453C188.201 572.545 181.701 576.404 181.701 582.476V671.095C181.701 676.585 184.699 681.635 189.518 684.264L213.87 697.547C219.201 700.455 225.701 696.596 225.701 690.524V601.904C225.701 596.415 222.703 591.365 217.884 588.736L193.532 575.453Z" fill="white"/>
<path fill-rule="evenodd" clip-rule="evenodd" d="M217.166 590.053L192.814 576.77C188.482 574.407 183.201 577.542 183.201 582.476V671.095C183.201 676.036 185.9 680.581 190.237 682.947L214.589 696.23C218.92 698.593 224.201 695.458 224.201 690.524V601.904C224.201 596.964 221.503 592.419 217.166 590.053ZM193.532 575.453C188.201 572.545 181.701 576.404 181.701 582.476V671.095C181.701 676.585 184.699 681.635 189.518 684.264L213.87 697.547C219.201 700.455 225.701 696.596 225.701 690.524V601.904C225.701 596.415 222.703 591.365 217.884 588.736L193.532 575.453Z" fill="#362F75"/>
<path d="M190.701 586.218C190.701 585.461 191.508 584.979 192.174 585.336L214.593 597.368C215.891 598.065 216.701 599.419 216.701 600.893V607.737C216.701 608.494 215.894 608.976 215.228 608.619L191.755 596.021C191.106 595.672 190.701 594.995 190.701 594.259V586.218Z" fill="white"/>
<path d="M196.701 592C196.701 593.105 195.806 594 194.701 594C193.597 594 192.701 593.105 192.701 592C192.701 590.895 193.597 590 194.701 590C195.806 590 196.701 590.895 196.701 592Z" fill="#39C2D7"/>
<path d="M207.701 598C207.701 599.105 206.806 600 205.701 600C204.597 600 203.701 599.105 203.701 598C203.701 596.895 204.597 596 205.701 596C206.806 596 207.701 596.895 207.701 598Z" fill="#39C2D7"/>
<path d="M201.701 595C201.701 596.105 200.806 597 199.701 597C198.597 597 197.701 596.105 197.701 595C197.701 593.895 198.597 593 199.701 593C200.806 593 201.701 593.895 201.701 595Z" fill="#39C2D7"/>
<path d="M190.701 600.218C190.701 599.461 191.508 598.979 192.174 599.336L214.593 611.368C215.891 612.065 216.701 613.419 216.701 614.893V621.737C216.701 622.494 215.894 622.976 215.228 622.619L191.755 610.021C191.106 609.672 190.701 608.995 190.701 608.259V600.218Z" fill="white"/>
<path d="M196.701 606C196.701 607.105 195.806 608 194.701 608C193.597 608 192.701 607.105 192.701 606C192.701 604.895 193.597 604 194.701 604C195.806 604 196.701 604.895 196.701 606Z" fill="#39C2D7"/>
<path d="M207.701 612C207.701 613.105 206.806 614 205.701 614C204.597 614 203.701 613.105 203.701 612C203.701 610.895 204.597 610 205.701 610C206.806 610 207.701 610.895 207.701 612Z" fill="#39C2D7"/>
<path d="M214.701 616C214.701 617.105 213.806 618 212.701 618C211.597 618 210.701 617.105 210.701 616C210.701 614.895 211.597 614 212.701 614C213.806 614 214.701 614.895 214.701 616Z" fill="#39C2D7"/>
<path d="M190.701 614.218C190.701 613.461 191.508 612.979 192.174 613.336L214.593 625.368C215.891 626.065 216.701 627.419 216.701 628.893V635.737C216.701 636.494 215.894 636.976 215.228 636.619L191.755 624.021C191.106 623.672 190.701 622.995 190.701 622.259V614.218Z" fill="white"/>
<path d="M196.701 620C196.701 621.105 195.806 622 194.701 622C193.597 622 192.701 621.105 192.701 620C192.701 618.895 193.597 618 194.701 618C195.806 618 196.701 618.895 196.701 620Z" fill="#39C2D7"/>
<path d="M201.701 623C201.701 624.105 200.806 625 199.701 625C198.597 625 197.701 624.105 197.701 623C197.701 621.895 198.597 621 199.701 621C200.806 621 201.701 621.895 201.701 623Z" fill="#39C2D7"/>
<path d="M214.701 630C214.701 631.105 213.806 632 212.701 632C211.597 632 210.701 631.105 210.701 630C210.701 628.895 211.597 628 212.701 628C213.806 628 214.701 628.895 214.701 630Z" fill="#39C2D7"/>
<path d="M190.701 665.218C190.701 664.461 191.508 663.979 192.174 664.336L214.593 676.368C215.891 677.065 216.701 678.419 216.701 679.893V686.737C216.701 687.494 215.894 687.976 215.228 687.619L193.337 675.869C191.714 674.998 190.701 673.306 190.701 671.464V665.218Z" fill="white"/>
<path d="M196.701 671C196.701 672.105 195.806 673 194.701 673C193.597 673 192.701 672.105 192.701 671C192.701 669.895 193.597 669 194.701 669C195.806 669 196.701 669.895 196.701 671Z" fill="#39C2D7"/>
<path d="M207.701 677C207.701 678.105 206.806 679 205.701 679C204.597 679 203.701 678.105 203.701 677C203.701 675.895 204.597 675 205.701 675C206.806 675 207.701 675.895 207.701 677Z" fill="#39C2D7"/>
<path fill-rule="evenodd" clip-rule="evenodd" d="M555.453 498.376C555.453 498.466 555.453 498.556 555.453 498.646H555.449C555.121 508.807 536.276 517 513.077 517C489.879 517 471.034 508.807 470.706 498.646H470.702C470.701 498.556 470.701 498.466 470.701 498.376C470.701 474.972 489.674 456 513.077 456C536.481 456 555.453 474.972 555.453 498.376Z" fill="white"/>
<path fill-rule="evenodd" clip-rule="evenodd" d="M555.449 498.646H555.453C555.453 498.556 555.453 498.466 555.453 498.376C555.453 498.286 555.453 498.196 555.453 498.107C555.452 497.992 555.451 497.877 555.449 497.762C555.446 497.556 555.442 497.351 555.436 497.146C554.785 474.311 536.07 456 513.077 456C490.085 456 471.37 474.311 470.719 497.146C470.713 497.351 470.708 497.556 470.706 497.762C470.704 497.877 470.703 497.991 470.702 498.106C470.701 498.196 470.701 498.286 470.701 498.376C470.701 498.466 470.701 498.556 470.702 498.646H470.706C471.034 508.807 489.879 517 513.077 517C536.276 517 555.121 508.807 555.449 498.646ZM472.201 498.492L472.205 498.598C472.271 500.653 473.274 502.731 475.268 504.745C477.268 506.765 480.198 508.647 483.912 510.257C491.336 513.477 501.635 515.5 513.077 515.5C524.52 515.5 534.819 513.477 542.243 510.257C545.956 508.647 548.887 506.765 550.886 504.745C552.881 502.731 553.883 500.653 553.95 498.598L553.953 498.492C553.953 498.453 553.953 498.415 553.953 498.376C553.953 475.801 535.653 457.5 513.077 457.5C490.502 457.5 472.201 475.801 472.201 498.376C472.201 498.415 472.201 498.453 472.201 498.492Z" fill="#362F75"/>
<path fill-rule="evenodd" clip-rule="evenodd" d="M484.546 500.531C491.81 503.561 501.897 505.454 513.077 505.454C524.257 505.454 534.344 503.561 541.607 500.531C545.241 499.015 548.132 497.229 550.104 495.284C552.073 493.342 553.084 491.286 553.084 489.199H554.584C554.584 491.808 553.313 494.225 551.157 496.352C549.004 498.476 545.927 500.354 542.185 501.915C534.698 505.039 524.406 506.954 513.077 506.954C501.748 506.954 491.456 505.039 483.969 501.915C480.227 500.354 477.15 498.476 474.996 496.352C472.841 494.225 471.57 491.808 471.57 489.199H473.07C473.07 491.286 474.081 493.342 476.05 495.284C478.022 497.229 480.913 499.015 484.546 500.531Z" fill="#362F75"/>
<path fill-rule="evenodd" clip-rule="evenodd" d="M486.036 491.209C492.921 493.664 502.481 495.197 513.077 495.197C523.673 495.197 533.233 493.664 540.117 491.209C543.563 489.98 546.298 488.534 548.158 486.966C550.021 485.395 550.924 483.775 550.924 482.181H552.424C552.424 484.389 551.168 486.39 549.124 488.113C547.078 489.839 544.16 491.359 540.621 492.621C533.536 495.148 523.798 496.697 513.077 496.697C502.356 496.697 492.617 495.148 485.532 492.621C481.993 491.359 479.076 489.839 477.029 488.113C474.986 486.39 473.729 484.389 473.729 482.181H475.229C475.229 483.775 476.133 485.395 477.996 486.966C479.856 488.534 482.591 489.98 486.036 491.209Z" fill="#362F75"/>
<path fill-rule="evenodd" clip-rule="evenodd" d="M490.661 480.429C496.36 482.872 504.285 484.4 513.077 484.4C521.87 484.4 529.795 482.872 535.494 480.429C538.345 479.208 540.604 477.772 542.139 476.216C543.671 474.664 544.447 473.032 544.447 471.385H545.947C545.947 473.539 544.925 475.529 543.207 477.27C541.491 479.008 539.047 480.539 536.085 481.808C530.159 484.348 522.024 485.9 513.077 485.9C504.131 485.9 495.996 484.348 490.07 481.808C487.108 480.539 484.664 479.008 482.948 477.27C481.23 475.529 480.208 473.539 480.208 471.385H481.708C481.708 473.032 482.484 474.664 484.016 476.216C485.551 477.772 487.81 479.208 490.661 480.429Z" fill="#362F75"/>
<path d="M532.571 463.827C532.571 464.626 532.155 465.469 531.224 466.321C530.292 467.173 528.902 467.974 527.121 468.663C523.564 470.038 518.599 470.905 513.077 470.905C507.556 470.905 502.591 470.038 499.034 468.663C497.253 467.974 495.863 467.173 494.931 466.321C493.999 465.469 493.584 464.626 493.584 463.827C493.584 463.029 493.999 462.186 494.931 461.334C495.863 460.482 497.253 459.681 499.034 458.992C502.591 457.617 507.556 456.75 513.077 456.75C518.599 456.75 523.564 457.617 527.121 458.992C528.902 459.681 530.292 460.482 531.224 461.334C532.155 462.186 532.571 463.029 532.571 463.827Z" fill="white" stroke="#362F75" stroke-width="1.5"/>
<path d="M491.215 500.132C491.215 495.483 495.509 492.023 500.052 493.011C503.401 493.74 505.79 496.705 505.79 500.132V516.46L491.215 513.289V500.132Z" fill="#362F75"/>
<path fill-rule="evenodd" clip-rule="evenodd" d="M540.316 478.628L530.329 467.292L531.455 466.301L541.441 477.637L540.316 478.628Z" fill="#362F75"/>
<path fill-rule="evenodd" clip-rule="evenodd" d="M488.431 479.876L496.528 467.73L497.776 468.562L489.679 480.708L488.431 479.876ZM514.486 485.15V471.115H515.986V485.15H514.486Z" fill="#362F75"/>
<path fill-rule="evenodd" clip-rule="evenodd" d="M530.707 494.522L527.738 483.455L529.187 483.067L532.156 494.133L530.707 494.522Z" fill="#362F75"/>
<path d="M544.117 474.894L550.055 485.96" stroke="#362F75" stroke-width="1.5"/>
<path d="M541.958 491.089L543.847 500.265" stroke="#362F75" stroke-width="1.5"/>
<path fill-rule="evenodd" clip-rule="evenodd" d="M514.757 506.204V495.947H516.257V506.204H514.757Z" fill="#362F75"/>
<path fill-rule="evenodd" clip-rule="evenodd" d="M530.682 514.611L530.143 504.625L531.64 504.544L532.18 514.53L530.682 514.611Z" fill="#362F75"/>
<path fill-rule="evenodd" clip-rule="evenodd" d="M497.762 493.937L499.381 483.951L500.862 484.191L499.242 494.178L497.762 493.937Z" fill="#362F75"/>
<path fill-rule="evenodd" clip-rule="evenodd" d="M480.226 499.295L482.115 490.658L483.58 490.979L481.691 499.616L480.226 499.295Z" fill="#362F75"/>
<path fill-rule="evenodd" clip-rule="evenodd" d="M474.003 505.33L474.813 495.883L476.307 496.011L475.497 505.458L474.003 505.33Z" fill="#362F75"/>
<path d="M495.709 693.289C478.079 684.085 457.061 684.085 439.431 693.289L384.844 721.785C376.133 726.333 376.133 738.798 384.844 743.347L421.764 762.62C428.927 766.36 428.927 776.611 421.764 780.35L384.844 799.623C376.133 804.172 376.133 816.637 384.844 821.186L486.866 874.445C504.497 883.649 525.515 883.649 543.145 874.445L645.168 821.186C653.879 816.637 653.879 804.172 645.168 799.623L543.831 746.722L550.296 743.347C559.007 738.798 559.007 726.333 550.296 721.785L495.709 693.289Z" fill="url(#paint2_linear_1711_676)"/>
<path d="M514.701 701.5L503.701 705.5L501.201 722.5L503.701 806L530.701 821H538.201L550.701 722.5L514.701 701.5Z" fill="#262153"/>
<path d="M579.701 706.031C579.701 700.475 576.63 695.374 571.719 692.774L552.832 682.775C548.38 680.418 543.041 680.454 538.621 682.87L502.701 702.5L536.701 721L537.701 825L575.544 804.277C578.107 802.873 579.701 800.183 579.701 797.26V706.031Z" fill="white"/>
<path fill-rule="evenodd" clip-rule="evenodd" d="M538.193 720.104L505.834 702.497L539.34 684.186C543.319 682.011 548.123 681.98 552.131 684.101L571.018 694.1C575.437 696.44 578.201 701.031 578.201 706.031V797.26C578.201 799.635 576.906 801.82 574.823 802.961L539.177 822.482L538.193 720.104ZM537.701 825L575.544 804.277C578.107 802.873 579.701 800.183 579.701 797.26V706.031C579.701 700.475 576.63 695.374 571.719 692.774L552.832 682.775C548.38 680.418 543.041 680.454 538.621 682.87L502.701 702.5L536.701 721L537.701 825Z" fill="#362F75"/>
<path fill-rule="evenodd" clip-rule="evenodd" d="M532.011 721.003L507.659 707.721C506.326 706.994 504.701 707.958 504.701 709.476V798.095C504.701 801.389 506.5 804.419 509.391 805.997L533.743 819.279C535.076 820.006 536.701 819.042 536.701 817.524V728.904C536.701 725.611 534.902 722.581 532.011 721.003ZM510.532 702.453C505.201 699.545 498.701 703.404 498.701 709.476V798.095C498.701 803.585 501.699 808.635 506.518 811.264L530.87 824.547C536.201 827.455 542.701 823.596 542.701 817.524V728.904C542.701 723.415 539.703 718.365 534.884 715.736L510.532 702.453Z" fill="white"/>
<path fill-rule="evenodd" clip-rule="evenodd" d="M534.166 717.053L509.814 703.77C505.482 701.407 500.201 704.542 500.201 709.476V798.095C500.201 803.036 502.9 807.581 507.237 809.947L531.589 823.23C535.92 825.593 541.201 822.458 541.201 817.524V728.904C541.201 723.964 538.503 719.419 534.166 717.053ZM510.532 702.453C505.201 699.545 498.701 703.404 498.701 709.476V798.095C498.701 803.585 501.699 808.635 506.518 811.264L530.87 824.547C536.201 827.455 542.701 823.596 542.701 817.524V728.904C542.701 723.415 539.703 718.365 534.884 715.736L510.532 702.453Z" fill="#362F75"/>
<path d="M507.701 713.218C507.701 712.461 508.508 711.979 509.174 712.336L531.593 724.368C532.891 725.065 533.701 726.419 533.701 727.893V734.737C533.701 735.494 532.894 735.976 532.228 735.619L508.755 723.021C508.106 722.672 507.701 721.995 507.701 721.259V713.218Z" fill="white"/>
<path d="M513.701 719C513.701 720.105 512.806 721 511.701 721C510.597 721 509.701 720.105 509.701 719C509.701 717.895 510.597 717 511.701 717C512.806 717 513.701 717.895 513.701 719Z" fill="#39C2D7"/>
<path d="M524.701 725C524.701 726.105 523.806 727 522.701 727C521.597 727 520.701 726.105 520.701 725C520.701 723.895 521.597 723 522.701 723C523.806 723 524.701 723.895 524.701 725Z" fill="#39C2D7"/>
<path d="M518.701 722C518.701 723.105 517.806 724 516.701 724C515.597 724 514.701 723.105 514.701 722C514.701 720.895 515.597 720 516.701 720C517.806 720 518.701 720.895 518.701 722Z" fill="#39C2D7"/>
<path d="M507.701 727.218C507.701 726.461 508.508 725.979 509.174 726.336L531.593 738.368C532.891 739.065 533.701 740.419 533.701 741.893V748.737C533.701 749.494 532.894 749.976 532.228 749.619L508.755 737.021C508.106 736.672 507.701 735.995 507.701 735.259V727.218Z" fill="white"/>
<path d="M513.701 733C513.701 734.105 512.806 735 511.701 735C510.597 735 509.701 734.105 509.701 733C509.701 731.895 510.597 731 511.701 731C512.806 731 513.701 731.895 513.701 733Z" fill="#39C2D7"/>
<path d="M524.701 739C524.701 740.105 523.806 741 522.701 741C521.597 741 520.701 740.105 520.701 739C520.701 737.895 521.597 737 522.701 737C523.806 737 524.701 737.895 524.701 739Z" fill="#39C2D7"/>
<path d="M531.701 743C531.701 744.105 530.806 745 529.701 745C528.597 745 527.701 744.105 527.701 743C527.701 741.895 528.597 741 529.701 741C530.806 741 531.701 741.895 531.701 743Z" fill="#39C2D7"/>
<path d="M507.701 741.218C507.701 740.461 508.508 739.979 509.174 740.336L531.593 752.368C532.891 753.065 533.701 754.419 533.701 755.893V762.737C533.701 763.494 532.894 763.976 532.228 763.619L508.755 751.021C508.106 750.672 507.701 749.995 507.701 749.259V741.218Z" fill="white"/>
<path d="M513.701 747C513.701 748.105 512.806 749 511.701 749C510.597 749 509.701 748.105 509.701 747C509.701 745.895 510.597 745 511.701 745C512.806 745 513.701 745.895 513.701 747Z" fill="#39C2D7"/>
<path d="M518.701 750C518.701 751.105 517.806 752 516.701 752C515.597 752 514.701 751.105 514.701 750C514.701 748.895 515.597 748 516.701 748C517.806 748 518.701 748.895 518.701 750Z" fill="#39C2D7"/>
<path d="M531.701 757C531.701 758.105 530.806 759 529.701 759C528.597 759 527.701 758.105 527.701 757C527.701 755.895 528.597 755 529.701 755C530.806 755 531.701 755.895 531.701 757Z" fill="#39C2D7"/>
<path d="M507.701 792.218C507.701 791.461 508.508 790.979 509.174 791.336L531.593 803.368C532.891 804.065 533.701 805.419 533.701 806.893V813.737C533.701 814.494 532.894 814.976 532.228 814.619L510.337 802.869C508.714 801.998 507.701 800.306 507.701 798.464V792.218Z" fill="white"/>
<path d="M513.701 798C513.701 799.105 512.806 800 511.701 800C510.597 800 509.701 799.105 509.701 798C509.701 796.895 510.597 796 511.701 796C512.806 796 513.701 796.895 513.701 798Z" fill="#39C2D7"/>
<path d="M524.701 804C524.701 805.105 523.806 806 522.701 806C521.597 806 520.701 805.105 520.701 804C520.701 802.895 521.597 802 522.701 802C523.806 802 524.701 802.895 524.701 804Z" fill="#39C2D7"/>
<path d="M666.701 647.986H588.701C588.701 647.986 599.701 633.986 627.701 633.986C655.701 633.986 666.701 647.986 666.701 647.986Z" fill="white"/>
<path fill-rule="evenodd" clip-rule="evenodd" d="M588.701 647.986C588.701 647.986 589.156 647.408 590.115 646.486C593.875 642.874 605.392 633.986 627.701 633.986C650.01 633.986 661.527 642.874 665.287 646.486C666.247 647.408 666.701 647.986 666.701 647.986H588.701ZM592.35 646.486H663.052C661.66 645.296 659.653 643.799 656.968 642.295C650.937 638.917 641.438 635.486 627.701 635.486C613.964 635.486 604.466 638.917 598.434 642.295C595.749 643.799 593.743 645.296 592.35 646.486Z" fill="#362F75"/>
<path d="M593.506 646.991L532.925 675.987C532.925 675.987 535.245 658.893 556.991 648.485C578.738 638.076 593.506 646.991 593.506 646.991Z" fill="white"/>
<path fill-rule="evenodd" clip-rule="evenodd" d="M532.925 675.987C532.925 675.987 533.018 675.303 533.341 674.125C534.631 669.415 539.595 656.811 556.991 648.485C574.388 640.158 587.318 644.197 591.795 646.147C592.915 646.634 593.506 646.991 593.506 646.991L532.925 675.987ZM535.173 673.248L589.963 647.024C588.343 646.417 586.053 645.733 583.189 645.319C577.05 644.431 568.224 644.771 557.639 649.838C547.054 654.904 541.253 661.564 538.094 666.903C536.621 669.393 535.717 671.606 535.173 673.248Z" fill="#362F75"/>
<path d="M616.393 614.081L590.379 649.567C590.379 649.567 584.37 637.468 593.708 624.729C603.046 611.991 616.393 614.081 616.393 614.081Z" fill="white"/>
<path fill-rule="evenodd" clip-rule="evenodd" d="M590.379 649.567C590.379 649.567 590.086 648.976 589.729 647.917C588.472 644.187 586.434 634.652 593.708 624.729C600.982 614.807 610.688 613.881 614.624 613.957C615.741 613.978 616.393 614.081 616.393 614.081L590.379 649.567ZM590.834 646.41L613.519 615.464C612.281 615.505 610.689 615.662 608.899 616.087C604.679 617.09 599.341 619.582 594.918 625.616C590.494 631.65 589.724 637.49 590.038 641.817C590.171 643.651 590.5 645.217 590.834 646.41Z" fill="#362F75"/>
<path d="M590.269 648.391L554.703 629.169C554.703 629.169 565.762 620.697 578.529 627.597C591.297 634.498 590.269 648.391 590.269 648.391Z" fill="white"/>
<path fill-rule="evenodd" clip-rule="evenodd" d="M554.703 629.169C554.703 629.169 555.21 628.78 556.133 628.237C559.519 626.244 568.497 622.175 578.529 627.597C588.562 633.02 590.077 642.759 590.265 646.683C590.317 647.753 590.269 648.391 590.269 648.391L554.703 629.169ZM557.695 629.081L588.703 645.839C588.587 644.555 588.325 642.872 587.754 641.024C586.5 636.965 583.773 632.136 577.816 628.917C571.86 625.698 566.326 626.062 562.243 627.237C560.385 627.772 558.833 628.474 557.695 629.081Z" fill="#362F75"/>
<path d="M660.438 698.372L588.701 647.298C588.701 647.298 610.431 638.189 636.183 656.523C661.935 674.857 660.438 698.372 660.438 698.372Z" fill="white"/>
<path d="M654.569 729.697C669.066 722.129 686.349 722.129 700.846 729.697L745.732 753.129C752.895 756.869 752.895 767.12 745.732 770.859L700.846 794.291C686.349 801.859 669.066 801.859 654.569 794.291L609.683 770.859C602.52 767.12 602.52 756.869 609.683 753.129L654.569 729.697Z" fill="#F2E88C"/>
<path d="M587.701 649.986L591.701 645.986C591.701 645.986 623.619 673.688 636.701 698.486C646.327 716.733 655.323 745.756 659.404 759.818C660.601 763.942 657.489 767.986 653.195 767.986L-nan -nanL653.195 767.986C650.019 767.986 647.298 765.71 646.687 762.594C644.353 750.677 638.144 721.68 629.701 702.986C617.664 676.333 587.701 649.986 587.701 649.986Z" fill="white"/>
<path fill-rule="evenodd" clip-rule="evenodd" d="M588.701 647.298C588.701 647.298 589.312 647.042 590.451 646.702C596.101 645.015 614.749 641.263 636.183 656.523C657.617 671.783 660.174 690.632 660.429 696.524C660.48 697.71 660.438 698.372 660.438 698.372L588.701 647.298ZM592.024 647.822L658.856 695.404C658.835 695.141 658.809 694.862 658.778 694.568C658.526 692.174 657.93 688.777 656.551 684.816C653.798 676.91 647.911 666.715 635.313 657.745C622.715 648.776 611.154 646.549 602.783 646.535C598.589 646.528 595.183 647.077 592.839 647.622C592.551 647.689 592.279 647.756 592.024 647.822Z" fill="#362F75"/>
<path d="M592.733 645.049L570.1 719.694C570.1 719.694 556.653 704.122 564.777 677.326C572.902 650.531 592.733 645.049 592.733 645.049Z" fill="white"/>
<path fill-rule="evenodd" clip-rule="evenodd" d="M570.1 719.694C570.1 719.694 569.66 719.184 568.988 718.192C565.942 713.695 558.122 699.276 564.777 677.326C571.433 655.376 585.943 647.729 590.974 645.681C592.084 645.228 592.733 645.049 592.733 645.049L570.1 719.694ZM569.559 716.31L590.403 647.562C590.319 647.601 590.232 647.641 590.145 647.682C588.247 648.573 585.615 650.038 582.732 652.316C576.976 656.864 570.178 664.683 566.213 677.762C562.247 690.84 563.558 701.118 565.819 708.096C566.952 711.593 568.327 714.272 569.41 716.067C569.46 716.15 569.51 716.231 569.559 716.31Z" fill="#362F75"/>
<path d="M551.701 438.5L540.701 442.5L538.201 459.5L540.701 543L567.701 558H575.201L587.701 459.5L551.701 438.5Z" fill="#262153"/>
<path d="M616.701 443.031C616.701 437.475 613.63 432.374 608.719 429.774L589.832 419.775C585.38 417.418 580.041 417.454 575.621 419.87L539.701 439.5L573.701 458L574.701 562L612.544 541.277C615.107 539.873 616.701 537.183 616.701 534.26V443.031Z" fill="white"/>
<path fill-rule="evenodd" clip-rule="evenodd" d="M575.193 457.104L542.834 439.497L576.34 421.186C580.319 419.011 585.123 418.98 589.131 421.101L608.018 431.1C612.437 433.44 615.201 438.031 615.201 443.031V534.26C615.201 536.635 613.906 538.82 611.823 539.961L576.177 559.482L575.193 457.104ZM574.701 562L612.544 541.277C615.107 539.873 616.701 537.183 616.701 534.26V443.031C616.701 437.475 613.63 432.374 608.719 429.774L589.832 419.775C585.38 417.418 580.041 417.454 575.621 419.87L539.701 439.5L573.701 458L574.701 562Z" fill="#362F75"/>
<path fill-rule="evenodd" clip-rule="evenodd" d="M569.011 458.003L544.659 444.721C543.326 443.994 541.701 444.958 541.701 446.476V535.096C541.701 538.389 543.5 541.42 546.391 542.997L570.743 556.28C572.076 557.006 573.701 556.042 573.701 554.524V465.905C573.701 462.611 571.902 459.581 569.011 458.003ZM547.532 439.453C542.201 436.545 535.701 440.404 535.701 446.476V535.096C535.701 540.585 538.699 545.635 543.518 548.264L567.87 561.547C573.201 564.455 579.701 560.596 579.701 554.524V465.905C579.701 460.415 576.703 455.365 571.884 452.736L547.532 439.453Z" fill="white"/>
<path fill-rule="evenodd" clip-rule="evenodd" d="M571.166 454.053L546.814 440.77C542.482 438.407 537.201 441.543 537.201 446.476V535.096C537.201 540.036 539.9 544.581 544.237 546.947L568.589 560.23C572.92 562.593 578.201 559.458 578.201 554.524V465.905C578.201 460.964 575.503 456.419 571.166 454.053ZM547.532 439.453C542.201 436.545 535.701 440.404 535.701 446.476V535.096C535.701 540.585 538.699 545.635 543.518 548.264L567.87 561.547C573.201 564.455 579.701 560.596 579.701 554.524V465.905C579.701 460.415 576.703 455.365 571.884 452.736L547.532 439.453Z" fill="#362F75"/>
<path d="M544.701 450.218C544.701 449.461 545.508 448.979 546.174 449.336L568.593 461.368C569.891 462.065 570.701 463.419 570.701 464.893V471.737C570.701 472.494 569.894 472.976 569.228 472.619L545.755 460.021C545.106 459.672 544.701 458.995 544.701 458.259V450.218Z" fill="white"/>
<path d="M550.701 456C550.701 457.105 549.806 458 548.701 458C547.597 458 546.701 457.105 546.701 456C546.701 454.895 547.597 454 548.701 454C549.806 454 550.701 454.895 550.701 456Z" fill="#39C2D7"/>
<path d="M561.701 462C561.701 463.105 560.806 464 559.701 464C558.597 464 557.701 463.105 557.701 462C557.701 460.895 558.597 460 559.701 460C560.806 460 561.701 460.895 561.701 462Z" fill="#39C2D7"/>
<path d="M555.701 459C555.701 460.105 554.806 461 553.701 461C552.597 461 551.701 460.105 551.701 459C551.701 457.895 552.597 457 553.701 457C554.806 457 555.701 457.895 555.701 459Z" fill="#39C2D7"/>
<path d="M544.701 464.218C544.701 463.461 545.508 462.979 546.174 463.336L568.593 475.368C569.891 476.065 570.701 477.419 570.701 478.893V485.737C570.701 486.494 569.894 486.976 569.228 486.619L545.755 474.021C545.106 473.672 544.701 472.995 544.701 472.259V464.218Z" fill="white"/>
<path d="M550.701 470C550.701 471.105 549.806 472 548.701 472C547.597 472 546.701 471.105 546.701 470C546.701 468.895 547.597 468 548.701 468C549.806 468 550.701 468.895 550.701 470Z" fill="#39C2D7"/>
<path d="M561.701 476C561.701 477.105 560.806 478 559.701 478C558.597 478 557.701 477.105 557.701 476C557.701 474.895 558.597 474 559.701 474C560.806 474 561.701 474.895 561.701 476Z" fill="#39C2D7"/>
<path d="M568.701 480C568.701 481.105 567.806 482 566.701 482C565.597 482 564.701 481.105 564.701 480C564.701 478.895 565.597 478 566.701 478C567.806 478 568.701 478.895 568.701 480Z" fill="#39C2D7"/>
<path d="M544.701 478.218C544.701 477.461 545.508 476.979 546.174 477.336L568.593 489.368C569.891 490.065 570.701 491.419 570.701 492.893V499.737C570.701 500.494 569.894 500.976 569.228 500.619L545.755 488.021C545.106 487.672 544.701 486.995 544.701 486.259V478.218Z" fill="white"/>
<path d="M550.701 484C550.701 485.105 549.806 486 548.701 486C547.597 486 546.701 485.105 546.701 484C546.701 482.895 547.597 482 548.701 482C549.806 482 550.701 482.895 550.701 484Z" fill="#39C2D7"/>
<path d="M555.701 487C555.701 488.105 554.806 489 553.701 489C552.597 489 551.701 488.105 551.701 487C551.701 485.895 552.597 485 553.701 485C554.806 485 555.701 485.895 555.701 487Z" fill="#39C2D7"/>
<path d="M568.701 494C568.701 495.105 567.806 496 566.701 496C565.597 496 564.701 495.105 564.701 494C564.701 492.895 565.597 492 566.701 492C567.806 492 568.701 492.895 568.701 494Z" fill="#39C2D7"/>
<path d="M544.701 529.218C544.701 528.461 545.508 527.979 546.174 528.336L568.593 540.368C569.891 541.065 570.701 542.419 570.701 543.893V550.737C570.701 551.494 569.894 551.976 569.228 551.619L547.337 539.869C545.714 538.998 544.701 537.306 544.701 535.464V529.218Z" fill="white"/>
<path d="M550.701 535C550.701 536.105 549.806 537 548.701 537C547.597 537 546.701 536.105 546.701 535C546.701 533.895 547.597 533 548.701 533C549.806 533 550.701 533.895 550.701 535Z" fill="#39C2D7"/>
<path d="M561.701 541C561.701 542.105 560.806 543 559.701 543C558.597 543 557.701 542.105 557.701 541C557.701 539.895 558.597 539 559.701 539C560.806 539 561.701 539.895 561.701 541Z" fill="#39C2D7"/>
<path fill-rule="evenodd" clip-rule="evenodd" d="M591.701 645.986L587.701 649.986C587.701 649.986 588.097 650.335 588.817 650.992C594.355 656.05 619.048 679.398 629.701 702.986C638.144 721.68 644.353 750.677 646.687 762.594C647.298 765.71 650.019 767.986 653.195 767.986C657.489 767.986 660.601 763.942 659.404 759.818C655.323 745.756 646.328 716.733 636.701 698.486C623.619 673.688 591.701 645.986 591.701 645.986ZM591.764 648.044L589.879 649.93C589.926 649.974 589.975 650.019 590.026 650.065C590.877 650.845 592.103 651.986 593.611 653.439C596.627 656.344 600.773 660.494 605.298 665.484C614.327 675.439 624.952 688.827 631.068 702.369C639.592 721.243 645.828 750.403 648.159 762.305C648.634 764.73 650.748 766.486 653.195 766.486C656.515 766.486 658.875 763.375 657.964 760.236C653.879 746.162 644.92 717.279 635.374 699.186C628.935 686.98 617.806 673.978 608.213 663.975C603.429 658.987 599.05 654.769 595.869 651.799C594.279 650.314 592.988 649.142 592.096 648.342C591.979 648.236 591.868 648.137 591.764 648.044Z" fill="#362F75"/>
<path d="M532.654 153.772C532.654 147.083 525.617 142.731 519.633 145.72L331.89 239.483C325.449 242.7 321.379 249.281 321.379 256.481V437.589C321.379 444.278 328.416 448.63 334.4 445.641L522.143 351.878C528.584 348.661 532.654 342.08 532.654 334.88V153.772Z" fill="white"/>
<path fill-rule="evenodd" clip-rule="evenodd" d="M520.303 147.062L332.56 240.825C326.627 243.788 322.879 249.849 322.879 256.481V437.589C322.879 443.163 328.743 446.789 333.73 444.299L521.473 350.536C527.406 347.573 531.154 341.512 531.154 334.88V153.772C531.154 148.198 525.289 144.571 520.303 147.062ZM519.633 145.72C525.617 142.731 532.654 147.083 532.654 153.772V334.88C532.654 342.08 528.584 348.661 522.143 351.878L334.4 445.641C328.416 448.63 321.379 444.278 321.379 437.589V256.481C321.379 249.281 325.449 242.7 331.89 239.483L519.633 145.72Z" fill="#362F75"/>
<path d="M582.053 78.0938L571.898 72.9412C569.06 71.501 565.706 71.4978 562.865 72.9327L498.965 105.207C491.556 108.949 486.884 116.543 486.884 124.844V320.215C486.884 322.822 488.333 325.214 490.645 326.42L501.852 332.27L572.702 287.116L582.053 78.0938Z" fill="#00C2D0"/>
<path d="M585.791 85.442C585.791 78.7558 578.759 74.4042 572.775 77.3878L506.494 110.438C500.047 113.653 495.973 120.237 495.973 127.441V323.734C495.973 330.42 503.005 334.772 508.989 331.788L575.27 298.738C581.717 295.523 585.791 288.939 585.791 281.735V85.442Z" fill="#BCE4EB"/>
<path fill-rule="evenodd" clip-rule="evenodd" d="M573.445 78.7301L507.163 111.78C501.225 114.741 497.473 120.806 497.473 127.441V323.734C497.473 329.306 503.333 332.932 508.319 330.446L574.6 297.396C580.539 294.435 584.291 288.37 584.291 281.735V85.442C584.291 79.8702 578.431 76.2438 573.445 78.7301ZM572.775 77.3878C578.759 74.4042 585.791 78.7558 585.791 85.442V281.735C585.791 288.939 581.717 295.523 575.27 298.738L508.989 331.788C503.005 334.772 495.973 330.42 495.973 323.734V127.441C495.973 120.237 500.047 113.653 506.494 110.438L572.775 77.3878Z" fill="#362F75"/>
<path d="M731.053 199.094L720.898 193.941C718.06 192.501 714.706 192.498 711.865 193.933L647.965 226.207C640.556 229.949 635.884 237.543 635.884 245.844V441.215C635.884 443.822 637.333 446.214 639.645 447.421L650.852 453.27L721.702 408.116L731.053 199.094Z" fill="#483DAE"/>
<path d="M735.701 207.066C735.701 200.38 728.669 196.028 722.685 199.012L656.404 232.062C649.957 235.277 645.883 241.861 645.883 249.065V445.358C645.883 452.044 652.915 456.396 658.899 453.412L725.18 420.362C731.627 417.147 735.701 410.563 735.701 403.359V207.066Z" fill="white"/>
<path fill-rule="evenodd" clip-rule="evenodd" d="M657.073 233.404L723.354 200.354C728.341 197.868 734.201 201.494 734.201 207.066V403.359C734.201 409.994 730.448 416.059 724.51 419.02L658.229 452.07C653.243 454.556 647.383 450.93 647.383 445.358V249.065C647.383 242.43 651.135 236.365 657.073 233.404ZM722.685 199.012C728.669 196.028 735.701 200.38 735.701 207.066V403.359C735.701 410.563 731.627 417.147 725.18 420.362L658.899 453.412C652.915 456.396 645.883 452.044 645.883 445.358V249.065C645.883 241.861 649.957 235.277 656.404 232.062L722.685 199.012Z" fill="#362F75"/>
<defs>
<linearGradient id="paint0_linear_1711_676" x1="783.214" y1="641.891" x2="550.177" y2="1039.94" gradientUnits="userSpaceOnUse">
<stop stop-color="#EEF0EB"/>
<stop offset="1" stop-color="#FAE784"/>
</linearGradient>
<linearGradient id="paint1_linear_1711_676" x1="292.948" y1="1038.06" x2="441.278" y2="429.723" gradientUnits="userSpaceOnUse">
<stop stop-color="#C9C8CF"/>
<stop offset="1" stop-color="#EFEFEF"/>
</linearGradient>
<linearGradient id="paint2_linear_1711_676" x1="453.057" y1="783.867" x2="999.518" y2="783.867" gradientUnits="userSpaceOnUse">
<stop stop-color="#EFEFEF"/>
<stop offset="1" stop-color="#FAE784"/>
</linearGradient>
</defs>
</svg>