<svg width="351" height="72" viewBox="0 0 351 72" fill="none" xmlns="http://www.w3.org/2000/svg">
<path d="M217 9.89502C214.791 9.89502 213 11.6859 213 13.895C213 16.1042 214.791 17.895 217 17.895C219.209 17.895 221 16.1042 221 13.895C221 11.6859 219.209 9.89502 217 9.89502Z" fill="#33109F"/>
<path d="M217 9.89502C214.791 9.89502 213 11.6859 213 13.895C213 16.1042 214.791 17.895 217 17.895C219.209 17.895 221 16.1042 221 13.895C221 11.6859 219.209 9.89502 217 9.89502Z" fill="url(#paint0_radial_3556_993)"/>
<path d="M217 9.89502C214.791 9.89502 213 11.6859 213 13.895C213 16.1042 214.791 17.895 217 17.895C219.209 17.895 221 16.1042 221 13.895C221 11.6859 219.209 9.89502 217 9.89502Z" fill="url(#paint1_radial_3556_993)" fill-opacity="0.6"/>
<path d="M217 9.89502C214.791 9.89502 213 11.6859 213 13.895C213 16.1042 214.791 17.895 217 17.895C219.209 17.895 221 16.1042 221 13.895C221 11.6859 219.209 9.89502 217 9.89502Z" fill="url(#paint2_radial_3556_993)"/>
<path d="M217 22.895C214.791 22.895 213 24.6859 213 26.895V42.895C213 50.0747 218.82 55.895 226 55.895H230C232.209 55.895 234 54.1042 234 51.895C234 49.6859 232.209 47.895 230 47.895H227C223.686 47.895 221 45.2087 221 41.895V26.895C221 24.6859 219.209 22.895 217 22.895Z" fill="#33109F"/>
<path d="M217 22.895C214.791 22.895 213 24.6859 213 26.895V42.895C213 50.0747 218.82 55.895 226 55.895H230C232.209 55.895 234 54.1042 234 51.895C234 49.6859 232.209 47.895 230 47.895H227C223.686 47.895 221 45.2087 221 41.895V26.895C221 24.6859 219.209 22.895 217 22.895Z" fill="url(#paint3_radial_3556_993)"/>
<path d="M217 22.895C214.791 22.895 213 24.6859 213 26.895V42.895C213 50.0747 218.82 55.895 226 55.895H230C232.209 55.895 234 54.1042 234 51.895C234 49.6859 232.209 47.895 230 47.895H227C223.686 47.895 221 45.2087 221 41.895V26.895C221 24.6859 219.209 22.895 217 22.895Z" fill="url(#paint4_radial_3556_993)" fill-opacity="0.6"/>
<path d="M217 22.895C214.791 22.895 213 24.6859 213 26.895V42.895C213 50.0747 218.82 55.895 226 55.895H230C232.209 55.895 234 54.1042 234 51.895C234 49.6859 232.209 47.895 230 47.895H227C223.686 47.895 221 45.2087 221 41.895V26.895C221 24.6859 219.209 22.895 217 22.895Z" fill="url(#paint5_radial_3556_993)"/>
<path d="M87 22.895C80.3726 22.895 75 28.2676 75 34.895V51.895C75 54.1042 76.7909 55.895 79 55.895C81.2091 55.895 83 54.1042 83 51.895V36.895C83 33.5813 85.6863 30.895 89 30.895H93C94.1046 30.895 95 31.7905 95 32.895V47.895C95 50.1042 96.7909 51.895 99 51.895C101.209 51.895 103 50.1042 103 47.895V32.895C103 31.7905 103.895 30.895 105 30.895H108C111.314 30.895 114 33.5813 114 36.895V51.895C114 54.1042 115.791 55.895 118 55.895C120.209 55.895 122 54.1042 122 51.895V34.895C122 28.2676 116.627 22.895 110 22.895H87Z" fill="#33109F"/>
<path d="M87 22.895C80.3726 22.895 75 28.2676 75 34.895V51.895C75 54.1042 76.7909 55.895 79 55.895C81.2091 55.895 83 54.1042 83 51.895V36.895C83 33.5813 85.6863 30.895 89 30.895H93C94.1046 30.895 95 31.7905 95 32.895V47.895C95 50.1042 96.7909 51.895 99 51.895C101.209 51.895 103 50.1042 103 47.895V32.895C103 31.7905 103.895 30.895 105 30.895H108C111.314 30.895 114 33.5813 114 36.895V51.895C114 54.1042 115.791 55.895 118 55.895C120.209 55.895 122 54.1042 122 51.895V34.895C122 28.2676 116.627 22.895 110 22.895H87Z" fill="url(#paint6_radial_3556_993)"/>
<path d="M87 22.895C80.3726 22.895 75 28.2676 75 34.895V51.895C75 54.1042 76.7909 55.895 79 55.895C81.2091 55.895 83 54.1042 83 51.895V36.895C83 33.5813 85.6863 30.895 89 30.895H93C94.1046 30.895 95 31.7905 95 32.895V47.895C95 50.1042 96.7909 51.895 99 51.895C101.209 51.895 103 50.1042 103 47.895V32.895C103 31.7905 103.895 30.895 105 30.895H108C111.314 30.895 114 33.5813 114 36.895V51.895C114 54.1042 115.791 55.895 118 55.895C120.209 55.895 122 54.1042 122 51.895V34.895C122 28.2676 116.627 22.895 110 22.895H87Z" fill="url(#paint7_radial_3556_993)" fill-opacity="0.6"/>
<path d="M87 22.895C80.3726 22.895 75 28.2676 75 34.895V51.895C75 54.1042 76.7909 55.895 79 55.895C81.2091 55.895 83 54.1042 83 51.895V36.895C83 33.5813 85.6863 30.895 89 30.895H93C94.1046 30.895 95 31.7905 95 32.895V47.895C95 50.1042 96.7909 51.895 99 51.895C101.209 51.895 103 50.1042 103 47.895V32.895C103 31.7905 103.895 30.895 105 30.895H108C111.314 30.895 114 33.5813 114 36.895V51.895C114 54.1042 115.791 55.895 118 55.895C120.209 55.895 122 54.1042 122 51.895V34.895C122 28.2676 116.627 22.895 110 22.895H87Z" fill="url(#paint8_radial_3556_993)"/>
<path d="M287 22.895C280.373 22.895 275 28.2676 275 34.895V51.895C275 54.1042 276.791 55.895 279 55.895C281.209 55.895 283 54.1042 283 51.895V35.895C283 33.1336 285.239 30.895 288 30.895H299C301.209 30.895 303 29.1042 303 26.895C303 24.6859 301.209 22.895 299 22.895H287Z" fill="#33109F"/>
<path d="M287 22.895C280.373 22.895 275 28.2676 275 34.895V51.895C275 54.1042 276.791 55.895 279 55.895C281.209 55.895 283 54.1042 283 51.895V35.895C283 33.1336 285.239 30.895 288 30.895H299C301.209 30.895 303 29.1042 303 26.895C303 24.6859 301.209 22.895 299 22.895H287Z" fill="url(#paint9_radial_3556_993)"/>
<path d="M287 22.895C280.373 22.895 275 28.2676 275 34.895V51.895C275 54.1042 276.791 55.895 279 55.895C281.209 55.895 283 54.1042 283 51.895V35.895C283 33.1336 285.239 30.895 288 30.895H299C301.209 30.895 303 29.1042 303 26.895C303 24.6859 301.209 22.895 299 22.895H287Z" fill="url(#paint10_radial_3556_993)" fill-opacity="0.6"/>
<path d="M287 22.895C280.373 22.895 275 28.2676 275 34.895V51.895C275 54.1042 276.791 55.895 279 55.895C281.209 55.895 283 54.1042 283 51.895V35.895C283 33.1336 285.239 30.895 288 30.895H299C301.209 30.895 303 29.1042 303 26.895C303 24.6859 301.209 22.895 299 22.895H287Z" fill="url(#paint11_radial_3556_993)"/>
<path fill-rule="evenodd" clip-rule="evenodd" d="M130 39.395C130 48.5077 137.387 55.895 146.5 55.895C155.613 55.895 163 48.5077 163 39.395C163 30.2823 155.613 22.895 146.5 22.895C137.387 22.895 130 30.2823 130 39.395ZM146.5 47.895C151.194 47.895 155 44.0894 155 39.395C155 34.7006 151.194 30.895 146.5 30.895C141.806 30.895 138 34.7006 138 39.395C138 44.0894 141.806 47.895 146.5 47.895Z" fill="#33109F"/>
<path fill-rule="evenodd" clip-rule="evenodd" d="M130 39.395C130 48.5077 137.387 55.895 146.5 55.895C155.613 55.895 163 48.5077 163 39.395C163 30.2823 155.613 22.895 146.5 22.895C137.387 22.895 130 30.2823 130 39.395ZM146.5 47.895C151.194 47.895 155 44.0894 155 39.395C155 34.7006 151.194 30.895 146.5 30.895C141.806 30.895 138 34.7006 138 39.395C138 44.0894 141.806 47.895 146.5 47.895Z" fill="url(#paint12_radial_3556_993)"/>
<path fill-rule="evenodd" clip-rule="evenodd" d="M130 39.395C130 48.5077 137.387 55.895 146.5 55.895C155.613 55.895 163 48.5077 163 39.395C163 30.2823 155.613 22.895 146.5 22.895C137.387 22.895 130 30.2823 130 39.395ZM146.5 47.895C151.194 47.895 155 44.0894 155 39.395C155 34.7006 151.194 30.895 146.5 30.895C141.806 30.895 138 34.7006 138 39.395C138 44.0894 141.806 47.895 146.5 47.895Z" fill="url(#paint13_radial_3556_993)" fill-opacity="0.6"/>
<path fill-rule="evenodd" clip-rule="evenodd" d="M130 39.395C130 48.5077 137.387 55.895 146.5 55.895C155.613 55.895 163 48.5077 163 39.395C163 30.2823 155.613 22.895 146.5 22.895C137.387 22.895 130 30.2823 130 39.395ZM146.5 47.895C151.194 47.895 155 44.0894 155 39.395C155 34.7006 151.194 30.895 146.5 30.895C141.806 30.895 138 34.7006 138 39.395C138 44.0894 141.806 47.895 146.5 47.895Z" fill="url(#paint14_radial_3556_993)"/>
<path d="M309 26.895C309 24.6859 310.791 22.895 313 22.895C315.209 22.895 317 24.6859 317 26.895V39.395C317 44.0894 320.806 47.895 325.5 47.895C330.194 47.895 334 44.0894 334 39.395V26.895C334 24.6859 335.791 22.895 338 22.895C340.209 22.895 342 24.6859 342 26.895V39.395C342 48.5077 334.613 55.895 325.5 55.895C316.387 55.895 309 48.5077 309 39.395V26.895Z" fill="#33109F"/>
<path d="M309 26.895C309 24.6859 310.791 22.895 313 22.895C315.209 22.895 317 24.6859 317 26.895V39.395C317 44.0894 320.806 47.895 325.5 47.895C330.194 47.895 334 44.0894 334 39.395V26.895C334 24.6859 335.791 22.895 338 22.895C340.209 22.895 342 24.6859 342 26.895V39.395C342 48.5077 334.613 55.895 325.5 55.895C316.387 55.895 309 48.5077 309 39.395V26.895Z" fill="url(#paint15_radial_3556_993)"/>
<path d="M309 26.895C309 24.6859 310.791 22.895 313 22.895C315.209 22.895 317 24.6859 317 26.895V39.395C317 44.0894 320.806 47.895 325.5 47.895C330.194 47.895 334 44.0894 334 39.395V26.895C334 24.6859 335.791 22.895 338 22.895C340.209 22.895 342 24.6859 342 26.895V39.395C342 48.5077 334.613 55.895 325.5 55.895C316.387 55.895 309 48.5077 309 39.395V26.895Z" fill="url(#paint16_radial_3556_993)" fill-opacity="0.6"/>
<path d="M309 26.895C309 24.6859 310.791 22.895 313 22.895C315.209 22.895 317 24.6859 317 26.895V39.395C317 44.0894 320.806 47.895 325.5 47.895C330.194 47.895 334 44.0894 334 39.395V26.895C334 24.6859 335.791 22.895 338 22.895C340.209 22.895 342 24.6859 342 26.895V39.395C342 48.5077 334.613 55.895 325.5 55.895C316.387 55.895 309 48.5077 309 39.395V26.895Z" fill="url(#paint17_radial_3556_993)"/>
<path fill-rule="evenodd" clip-rule="evenodd" d="M171 13.895C171 11.6859 172.791 9.89502 175 9.89502C177.209 9.89502 179 11.6859 179 13.895V22.895H187.5C196.613 22.895 204 30.2823 204 39.395C204 48.5077 196.613 55.895 187.5 55.895C178.387 55.895 171 48.5077 171 39.395V13.895ZM179 39.395C179 44.0894 182.806 47.895 187.5 47.895C192.194 47.895 196 44.0894 196 39.395C196 34.7006 192.194 30.895 187.5 30.895C182.806 30.895 179 34.7006 179 39.395Z" fill="#33109F"/>
<path fill-rule="evenodd" clip-rule="evenodd" d="M171 13.895C171 11.6859 172.791 9.89502 175 9.89502C177.209 9.89502 179 11.6859 179 13.895V22.895H187.5C196.613 22.895 204 30.2823 204 39.395C204 48.5077 196.613 55.895 187.5 55.895C178.387 55.895 171 48.5077 171 39.395V13.895ZM179 39.395C179 44.0894 182.806 47.895 187.5 47.895C192.194 47.895 196 44.0894 196 39.395C196 34.7006 192.194 30.895 187.5 30.895C182.806 30.895 179 34.7006 179 39.395Z" fill="url(#paint18_radial_3556_993)"/>
<path fill-rule="evenodd" clip-rule="evenodd" d="M171 13.895C171 11.6859 172.791 9.89502 175 9.89502C177.209 9.89502 179 11.6859 179 13.895V22.895H187.5C196.613 22.895 204 30.2823 204 39.395C204 48.5077 196.613 55.895 187.5 55.895C178.387 55.895 171 48.5077 171 39.395V13.895ZM179 39.395C179 44.0894 182.806 47.895 187.5 47.895C192.194 47.895 196 44.0894 196 39.395C196 34.7006 192.194 30.895 187.5 30.895C182.806 30.895 179 34.7006 179 39.395Z" fill="url(#paint19_radial_3556_993)" fill-opacity="0.6"/>
<path fill-rule="evenodd" clip-rule="evenodd" d="M171 13.895C171 11.6859 172.791 9.89502 175 9.89502C177.209 9.89502 179 11.6859 179 13.895V22.895H187.5C196.613 22.895 204 30.2823 204 39.395C204 48.5077 196.613 55.895 187.5 55.895C178.387 55.895 171 48.5077 171 39.395V13.895ZM179 39.395C179 44.0894 182.806 47.895 187.5 47.895C192.194 47.895 196 44.0894 196 39.395C196 34.7006 192.194 30.895 187.5 30.895C182.806 30.895 179 34.7006 179 39.395Z" fill="url(#paint20_radial_3556_993)"/>
<path d="M240 13.895C240 11.6859 241.791 9.89502 244 9.89502C246.209 9.89502 248 11.6859 248 13.895V22.895H256C258.209 22.895 260 24.6859 260 26.895C260 29.1042 258.209 30.895 256 30.895H248V37.895C248 43.4179 252.477 47.895 258 47.895H264C266.209 47.895 268 49.6859 268 51.895C268 54.1042 266.209 55.895 264 55.895H256C247.163 55.895 240 48.7316 240 39.895V13.895Z" fill="#33109F"/>
<path d="M240 13.895C240 11.6859 241.791 9.89502 244 9.89502C246.209 9.89502 248 11.6859 248 13.895V22.895H256C258.209 22.895 260 24.6859 260 26.895C260 29.1042 258.209 30.895 256 30.895H248V37.895C248 43.4179 252.477 47.895 258 47.895H264C266.209 47.895 268 49.6859 268 51.895C268 54.1042 266.209 55.895 264 55.895H256C247.163 55.895 240 48.7316 240 39.895V13.895Z" fill="url(#paint21_radial_3556_993)"/>
<path d="M240 13.895C240 11.6859 241.791 9.89502 244 9.89502C246.209 9.89502 248 11.6859 248 13.895V22.895H256C258.209 22.895 260 24.6859 260 26.895C260 29.1042 258.209 30.895 256 30.895H248V37.895C248 43.4179 252.477 47.895 258 47.895H264C266.209 47.895 268 49.6859 268 51.895C268 54.1042 266.209 55.895 264 55.895H256C247.163 55.895 240 48.7316 240 39.895V13.895Z" fill="url(#paint22_radial_3556_993)" fill-opacity="0.6"/>
<path d="M240 13.895C240 11.6859 241.791 9.89502 244 9.89502C246.209 9.89502 248 11.6859 248 13.895V22.895H256C258.209 22.895 260 24.6859 260 26.895C260 29.1042 258.209 30.895 256 30.895H248V37.895C248 43.4179 252.477 47.895 258 47.895H264C266.209 47.895 268 49.6859 268 51.895C268 54.1042 266.209 55.895 264 55.895H256C247.163 55.895 240 48.7316 240 39.895V13.895Z" fill="url(#paint23_radial_3556_993)"/>
<path d="M63.0169 40.8175C64.3729 57.3255 48.8558 68.7891 33.9624 63.9233C28.3333 62.0843 22.9291 59.4772 17.9104 56.1801C4.52527 47.3866 3.70061 27.2509 16.3444 17.5143C20.1286 14.6003 24.1801 12.1275 28.4235 10.1252C40.9384 4.2202 56.5358 12.4586 60.4584 26.5159C61.7562 31.1671 62.6178 35.9593 63.0169 40.8175Z" fill="url(#paint24_linear_3556_993)"/>
<path d="M50.8324 54.2106C45.668 62.6501 34.3901 64.3092 27.0864 57.6985C20.302 51.5578 14.9689 43.8421 11.5862 35.2758C7.91518 25.9794 13.4033 15.7062 23.0756 13.7589C30.7679 12.2102 38.6415 12.2792 46.2097 13.8743C54.6729 15.658 60.2265 23.867 58.8322 32.5324C57.604 40.1656 54.9087 47.5493 50.8324 54.2106Z" fill="url(#paint25_linear_3556_993)"/>
<path d="M52.5287 48.7092C51.064 53.5713 47.7491 57.3323 41.8778 56.1771C36.0065 55.022 24.7052 49.7577 17.9612 41.8179C14.6083 37.8705 14.9098 31.8845 18.6314 28.3199C25.2992 21.9332 33.5636 17.8546 42.2754 16.407C46.6372 15.6823 50.869 18.2471 52.452 22.5751C55.5766 31.1177 54.8499 41.0039 52.5287 48.7092Z" fill="#33109F"/>
<defs>
<radialGradient id="paint0_radial_3556_993" cx="0" cy="0" r="1" gradientUnits="userSpaceOnUse" gradientTransform="translate(337.529 26.3937) rotate(162.667) scale(172.536 400.684)">
<stop offset="0.130438" stop-color="#5DEAF4"/>
<stop offset="0.46428" stop-color="#43EAF6"/>
<stop offset="0.745056" stop-color="#6CB7FD" stop-opacity="0"/>
</radialGradient>
<radialGradient id="paint1_radial_3556_993" cx="0" cy="0" r="1" gradientUnits="userSpaceOnUse" gradientTransform="translate(346.127 32.895) rotate(-163.277) scale(79.9338 68.2383)">
<stop stop-color="#40D7EE"/>
<stop offset="1" stop-color="#22A475" stop-opacity="0"/>
</radialGradient>
<radialGradient id="paint2_radial_3556_993" cx="0" cy="0" r="1" gradientUnits="userSpaceOnUse" gradientTransform="translate(197.645 93.8955) rotate(-92.2615) scale(65.8313 59.32)">
<stop stop-color="#EA673E"/>
<stop offset="1" stop-color="#EA673E" stop-opacity="0"/>
</radialGradient>
<radialGradient id="paint3_radial_3556_993" cx="0" cy="0" r="1" gradientUnits="userSpaceOnUse" gradientTransform="translate(337.529 26.3937) rotate(162.667) scale(172.536 400.684)">
<stop offset="0.130438" stop-color="#5DEAF4"/>
<stop offset="0.46428" stop-color="#43EAF6"/>
<stop offset="0.745056" stop-color="#6CB7FD" stop-opacity="0"/>
</radialGradient>
<radialGradient id="paint4_radial_3556_993" cx="0" cy="0" r="1" gradientUnits="userSpaceOnUse" gradientTransform="translate(346.127 32.895) rotate(-163.277) scale(79.9338 68.2383)">
<stop stop-color="#40D7EE"/>
<stop offset="1" stop-color="#22A475" stop-opacity="0"/>
</radialGradient>
<radialGradient id="paint5_radial_3556_993" cx="0" cy="0" r="1" gradientUnits="userSpaceOnUse" gradientTransform="translate(197.645 93.8955) rotate(-92.2615) scale(65.8313 59.32)">
<stop stop-color="#EA673E"/>
<stop offset="1" stop-color="#EA673E" stop-opacity="0"/>
</radialGradient>
<radialGradient id="paint6_radial_3556_993" cx="0" cy="0" r="1" gradientUnits="userSpaceOnUse" gradientTransform="translate(337.529 26.3937) rotate(162.667) scale(172.536 400.684)">
<stop offset="0.130438" stop-color="#5DEAF4"/>
<stop offset="0.46428" stop-color="#43EAF6"/>
<stop offset="0.745056" stop-color="#6CB7FD" stop-opacity="0"/>
</radialGradient>
<radialGradient id="paint7_radial_3556_993" cx="0" cy="0" r="1" gradientUnits="userSpaceOnUse" gradientTransform="translate(346.127 32.895) rotate(-163.277) scale(79.9338 68.2383)">
<stop stop-color="#40D7EE"/>
<stop offset="1" stop-color="#22A475" stop-opacity="0"/>
</radialGradient>
<radialGradient id="paint8_radial_3556_993" cx="0" cy="0" r="1" gradientUnits="userSpaceOnUse" gradientTransform="translate(197.645 93.8955) rotate(-92.2615) scale(65.8313 59.32)">
<stop stop-color="#EA673E"/>
<stop offset="1" stop-color="#EA673E" stop-opacity="0"/>
</radialGradient>
<radialGradient id="paint9_radial_3556_993" cx="0" cy="0" r="1" gradientUnits="userSpaceOnUse" gradientTransform="translate(337.529 26.3937) rotate(162.667) scale(172.536 400.684)">
<stop offset="0.130438" stop-color="#5DEAF4"/>
<stop offset="0.46428" stop-color="#43EAF6"/>
<stop offset="0.745056" stop-color="#6CB7FD" stop-opacity="0"/>
</radialGradient>
<radialGradient id="paint10_radial_3556_993" cx="0" cy="0" r="1" gradientUnits="userSpaceOnUse" gradientTransform="translate(346.127 32.895) rotate(-163.277) scale(79.9338 68.2383)">
<stop stop-color="#40D7EE"/>
<stop offset="1" stop-color="#22A475" stop-opacity="0"/>
</radialGradient>
<radialGradient id="paint11_radial_3556_993" cx="0" cy="0" r="1" gradientUnits="userSpaceOnUse" gradientTransform="translate(197.645 93.8955) rotate(-92.2615) scale(65.8313 59.32)">
<stop stop-color="#EA673E"/>
<stop offset="1" stop-color="#EA673E" stop-opacity="0"/>
</radialGradient>
<radialGradient id="paint12_radial_3556_993" cx="0" cy="0" r="1" gradientUnits="userSpaceOnUse" gradientTransform="translate(337.529 26.3937) rotate(162.667) scale(172.536 400.684)">
<stop offset="0.130438" stop-color="#5DEAF4"/>
<stop offset="0.46428" stop-color="#43EAF6"/>
<stop offset="0.745056" stop-color="#6CB7FD" stop-opacity="0"/>
</radialGradient>
<radialGradient id="paint13_radial_3556_993" cx="0" cy="0" r="1" gradientUnits="userSpaceOnUse" gradientTransform="translate(346.127 32.895) rotate(-163.277) scale(79.9338 68.2383)">
<stop stop-color="#40D7EE"/>
<stop offset="1" stop-color="#22A475" stop-opacity="0"/>
</radialGradient>
<radialGradient id="paint14_radial_3556_993" cx="0" cy="0" r="1" gradientUnits="userSpaceOnUse" gradientTransform="translate(197.645 93.8955) rotate(-92.2615) scale(65.8313 59.32)">
<stop stop-color="#EA673E"/>
<stop offset="1" stop-color="#EA673E" stop-opacity="0"/>
</radialGradient>
<radialGradient id="paint15_radial_3556_993" cx="0" cy="0" r="1" gradientUnits="userSpaceOnUse" gradientTransform="translate(337.529 26.3937) rotate(162.667) scale(172.536 400.684)">
<stop offset="0.130438" stop-color="#5DEAF4"/>
<stop offset="0.46428" stop-color="#43EAF6"/>
<stop offset="0.745056" stop-color="#6CB7FD" stop-opacity="0"/>
</radialGradient>
<radialGradient id="paint16_radial_3556_993" cx="0" cy="0" r="1" gradientUnits="userSpaceOnUse" gradientTransform="translate(346.127 32.895) rotate(-163.277) scale(79.9338 68.2383)">
<stop stop-color="#40D7EE"/>
<stop offset="1" stop-color="#22A475" stop-opacity="0"/>
</radialGradient>
<radialGradient id="paint17_radial_3556_993" cx="0" cy="0" r="1" gradientUnits="userSpaceOnUse" gradientTransform="translate(197.645 93.8955) rotate(-92.2615) scale(65.8313 59.32)">
<stop stop-color="#EA673E"/>
<stop offset="1" stop-color="#EA673E" stop-opacity="0"/>
</radialGradient>
<radialGradient id="paint18_radial_3556_993" cx="0" cy="0" r="1" gradientUnits="userSpaceOnUse" gradientTransform="translate(337.529 26.3937) rotate(162.667) scale(172.536 400.684)">
<stop offset="0.130438" stop-color="#5DEAF4"/>
<stop offset="0.46428" stop-color="#43EAF6"/>
<stop offset="0.745056" stop-color="#6CB7FD" stop-opacity="0"/>
</radialGradient>
<radialGradient id="paint19_radial_3556_993" cx="0" cy="0" r="1" gradientUnits="userSpaceOnUse" gradientTransform="translate(346.127 32.895) rotate(-163.277) scale(79.9338 68.2383)">
<stop stop-color="#40D7EE"/>
<stop offset="1" stop-color="#22A475" stop-opacity="0"/>
</radialGradient>
<radialGradient id="paint20_radial_3556_993" cx="0" cy="0" r="1" gradientUnits="userSpaceOnUse" gradientTransform="translate(197.645 93.8955) rotate(-92.2615) scale(65.8313 59.32)">
<stop stop-color="#EA673E"/>
<stop offset="1" stop-color="#EA673E" stop-opacity="0"/>
</radialGradient>
<radialGradient id="paint21_radial_3556_993" cx="0" cy="0" r="1" gradientUnits="userSpaceOnUse" gradientTransform="translate(337.529 26.3937) rotate(162.667) scale(172.536 400.684)">
<stop offset="0.130438" stop-color="#5DEAF4"/>
<stop offset="0.46428" stop-color="#43EAF6"/>
<stop offset="0.745056" stop-color="#6CB7FD" stop-opacity="0"/>
</radialGradient>
<radialGradient id="paint22_radial_3556_993" cx="0" cy="0" r="1" gradientUnits="userSpaceOnUse" gradientTransform="translate(346.127 32.895) rotate(-163.277) scale(79.9338 68.2383)">
<stop stop-color="#40D7EE"/>
<stop offset="1" stop-color="#22A475" stop-opacity="0"/>
</radialGradient>
<radialGradient id="paint23_radial_3556_993" cx="0" cy="0" r="1" gradientUnits="userSpaceOnUse" gradientTransform="translate(197.645 93.8955) rotate(-92.2615) scale(65.8313 59.32)">
<stop stop-color="#EA673E"/>
<stop offset="1" stop-color="#EA673E" stop-opacity="0"/>
</radialGradient>
<linearGradient id="paint24_linear_3556_993" x1="29.0264" y1="17.5941" x2="59.488" y2="70.6189" gradientUnits="userSpaceOnUse">
<stop stop-color="#5DEAF4" stop-opacity="0"/>
<stop offset="1" stop-color="#5DEAF4"/>
</linearGradient>
<linearGradient id="paint25_linear_3556_993" x1="-11.6951" y1="15.2737" x2="67.23" y2="69.4243" gradientUnits="userSpaceOnUse">
<stop offset="0.182292" stop-color="#8146FF"/>
<stop offset="0.771826" stop-color="#7000FF" stop-opacity="0"/>
</linearGradient>
</defs>
</svg>
