<svg width="287" height="72" viewBox="0 0 287 72" fill="none" xmlns="http://www.w3.org/2000/svg">
<path d="M152 11.895C149.791 11.895 148 13.6859 148 15.895C148 18.1042 149.791 19.895 152 19.895C154.209 19.895 156 18.1042 156 15.895C156 13.6859 154.209 11.895 152 11.895Z" fill="#33109F"/>
<path d="M152 11.895C149.791 11.895 148 13.6859 148 15.895C148 18.1042 149.791 19.895 152 19.895C154.209 19.895 156 18.1042 156 15.895C156 13.6859 154.209 11.895 152 11.895Z" fill="url(#paint0_radial_3596_1018)"/>
<path d="M152 11.895C149.791 11.895 148 13.6859 148 15.895C148 18.1042 149.791 19.895 152 19.895C154.209 19.895 156 18.1042 156 15.895C156 13.6859 154.209 11.895 152 11.895Z" fill="url(#paint1_radial_3596_1018)" fill-opacity="0.6"/>
<path d="M152 11.895C149.791 11.895 148 13.6859 148 15.895C148 18.1042 149.791 19.895 152 19.895C154.209 19.895 156 18.1042 156 15.895C156 13.6859 154.209 11.895 152 11.895Z" fill="url(#paint2_radial_3596_1018)"/>
<path d="M152 24.895C149.791 24.895 148 26.6859 148 28.895V44.895C148 52.0747 153.82 57.895 161 57.895H165C167.209 57.895 169 56.1042 169 53.895C169 51.6859 167.209 49.895 165 49.895H162C158.686 49.895 156 47.2087 156 43.895V28.895C156 26.6859 154.209 24.895 152 24.895Z" fill="#33109F"/>
<path d="M152 24.895C149.791 24.895 148 26.6859 148 28.895V44.895C148 52.0747 153.82 57.895 161 57.895H165C167.209 57.895 169 56.1042 169 53.895C169 51.6859 167.209 49.895 165 49.895H162C158.686 49.895 156 47.2087 156 43.895V28.895C156 26.6859 154.209 24.895 152 24.895Z" fill="url(#paint3_radial_3596_1018)"/>
<path d="M152 24.895C149.791 24.895 148 26.6859 148 28.895V44.895C148 52.0747 153.82 57.895 161 57.895H165C167.209 57.895 169 56.1042 169 53.895C169 51.6859 167.209 49.895 165 49.895H162C158.686 49.895 156 47.2087 156 43.895V28.895C156 26.6859 154.209 24.895 152 24.895Z" fill="url(#paint4_radial_3596_1018)" fill-opacity="0.6"/>
<path d="M152 24.895C149.791 24.895 148 26.6859 148 28.895V44.895C148 52.0747 153.82 57.895 161 57.895H165C167.209 57.895 169 56.1042 169 53.895C169 51.6859 167.209 49.895 165 49.895H162C158.686 49.895 156 47.2087 156 43.895V28.895C156 26.6859 154.209 24.895 152 24.895Z" fill="url(#paint5_radial_3596_1018)"/>
<path d="M22 24.895C15.3726 24.895 10 30.2676 10 36.895V53.895C10 56.1042 11.7909 57.895 14 57.895C16.2091 57.895 18 56.1042 18 53.895V38.895C18 35.5813 20.6863 32.895 24 32.895H28C29.1046 32.895 30 33.7905 30 34.895V49.895C30 52.1042 31.7909 53.895 34 53.895C36.2091 53.895 38 52.1042 38 49.895V34.895C38 33.7905 38.8954 32.895 40 32.895H43C46.3137 32.895 49 35.5813 49 38.895V53.895C49 56.1042 50.7909 57.895 53 57.895C55.2091 57.895 57 56.1042 57 53.895V36.895C57 30.2676 51.6274 24.895 45 24.895H22Z" fill="#33109F"/>
<path d="M22 24.895C15.3726 24.895 10 30.2676 10 36.895V53.895C10 56.1042 11.7909 57.895 14 57.895C16.2091 57.895 18 56.1042 18 53.895V38.895C18 35.5813 20.6863 32.895 24 32.895H28C29.1046 32.895 30 33.7905 30 34.895V49.895C30 52.1042 31.7909 53.895 34 53.895C36.2091 53.895 38 52.1042 38 49.895V34.895C38 33.7905 38.8954 32.895 40 32.895H43C46.3137 32.895 49 35.5813 49 38.895V53.895C49 56.1042 50.7909 57.895 53 57.895C55.2091 57.895 57 56.1042 57 53.895V36.895C57 30.2676 51.6274 24.895 45 24.895H22Z" fill="url(#paint6_radial_3596_1018)"/>
<path d="M22 24.895C15.3726 24.895 10 30.2676 10 36.895V53.895C10 56.1042 11.7909 57.895 14 57.895C16.2091 57.895 18 56.1042 18 53.895V38.895C18 35.5813 20.6863 32.895 24 32.895H28C29.1046 32.895 30 33.7905 30 34.895V49.895C30 52.1042 31.7909 53.895 34 53.895C36.2091 53.895 38 52.1042 38 49.895V34.895C38 33.7905 38.8954 32.895 40 32.895H43C46.3137 32.895 49 35.5813 49 38.895V53.895C49 56.1042 50.7909 57.895 53 57.895C55.2091 57.895 57 56.1042 57 53.895V36.895C57 30.2676 51.6274 24.895 45 24.895H22Z" fill="url(#paint7_radial_3596_1018)" fill-opacity="0.6"/>
<path d="M22 24.895C15.3726 24.895 10 30.2676 10 36.895V53.895C10 56.1042 11.7909 57.895 14 57.895C16.2091 57.895 18 56.1042 18 53.895V38.895C18 35.5813 20.6863 32.895 24 32.895H28C29.1046 32.895 30 33.7905 30 34.895V49.895C30 52.1042 31.7909 53.895 34 53.895C36.2091 53.895 38 52.1042 38 49.895V34.895C38 33.7905 38.8954 32.895 40 32.895H43C46.3137 32.895 49 35.5813 49 38.895V53.895C49 56.1042 50.7909 57.895 53 57.895C55.2091 57.895 57 56.1042 57 53.895V36.895C57 30.2676 51.6274 24.895 45 24.895H22Z" fill="url(#paint8_radial_3596_1018)"/>
<path d="M222 24.895C215.373 24.895 210 30.2676 210 36.895V53.895C210 56.1042 211.791 57.895 214 57.895C216.209 57.895 218 56.1042 218 53.895V37.895C218 35.1336 220.239 32.895 223 32.895H234C236.209 32.895 238 31.1042 238 28.895C238 26.6859 236.209 24.895 234 24.895H222Z" fill="#33109F"/>
<path d="M222 24.895C215.373 24.895 210 30.2676 210 36.895V53.895C210 56.1042 211.791 57.895 214 57.895C216.209 57.895 218 56.1042 218 53.895V37.895C218 35.1336 220.239 32.895 223 32.895H234C236.209 32.895 238 31.1042 238 28.895C238 26.6859 236.209 24.895 234 24.895H222Z" fill="url(#paint9_radial_3596_1018)"/>
<path d="M222 24.895C215.373 24.895 210 30.2676 210 36.895V53.895C210 56.1042 211.791 57.895 214 57.895C216.209 57.895 218 56.1042 218 53.895V37.895C218 35.1336 220.239 32.895 223 32.895H234C236.209 32.895 238 31.1042 238 28.895C238 26.6859 236.209 24.895 234 24.895H222Z" fill="url(#paint10_radial_3596_1018)" fill-opacity="0.6"/>
<path d="M222 24.895C215.373 24.895 210 30.2676 210 36.895V53.895C210 56.1042 211.791 57.895 214 57.895C216.209 57.895 218 56.1042 218 53.895V37.895C218 35.1336 220.239 32.895 223 32.895H234C236.209 32.895 238 31.1042 238 28.895C238 26.6859 236.209 24.895 234 24.895H222Z" fill="url(#paint11_radial_3596_1018)"/>
<path fill-rule="evenodd" clip-rule="evenodd" d="M65 41.395C65 50.5077 72.3873 57.895 81.5 57.895C90.6127 57.895 98 50.5077 98 41.395C98 32.2823 90.6127 24.895 81.5 24.895C72.3873 24.895 65 32.2823 65 41.395ZM81.5 49.895C86.1944 49.895 90 46.0894 90 41.395C90 36.7006 86.1944 32.895 81.5 32.895C76.8056 32.895 73 36.7006 73 41.395C73 46.0894 76.8056 49.895 81.5 49.895Z" fill="#33109F"/>
<path fill-rule="evenodd" clip-rule="evenodd" d="M65 41.395C65 50.5077 72.3873 57.895 81.5 57.895C90.6127 57.895 98 50.5077 98 41.395C98 32.2823 90.6127 24.895 81.5 24.895C72.3873 24.895 65 32.2823 65 41.395ZM81.5 49.895C86.1944 49.895 90 46.0894 90 41.395C90 36.7006 86.1944 32.895 81.5 32.895C76.8056 32.895 73 36.7006 73 41.395C73 46.0894 76.8056 49.895 81.5 49.895Z" fill="url(#paint12_radial_3596_1018)"/>
<path fill-rule="evenodd" clip-rule="evenodd" d="M65 41.395C65 50.5077 72.3873 57.895 81.5 57.895C90.6127 57.895 98 50.5077 98 41.395C98 32.2823 90.6127 24.895 81.5 24.895C72.3873 24.895 65 32.2823 65 41.395ZM81.5 49.895C86.1944 49.895 90 46.0894 90 41.395C90 36.7006 86.1944 32.895 81.5 32.895C76.8056 32.895 73 36.7006 73 41.395C73 46.0894 76.8056 49.895 81.5 49.895Z" fill="url(#paint13_radial_3596_1018)" fill-opacity="0.6"/>
<path fill-rule="evenodd" clip-rule="evenodd" d="M65 41.395C65 50.5077 72.3873 57.895 81.5 57.895C90.6127 57.895 98 50.5077 98 41.395C98 32.2823 90.6127 24.895 81.5 24.895C72.3873 24.895 65 32.2823 65 41.395ZM81.5 49.895C86.1944 49.895 90 46.0894 90 41.395C90 36.7006 86.1944 32.895 81.5 32.895C76.8056 32.895 73 36.7006 73 41.395C73 46.0894 76.8056 49.895 81.5 49.895Z" fill="url(#paint14_radial_3596_1018)"/>
<path d="M244 28.895C244 26.6859 245.791 24.895 248 24.895C250.209 24.895 252 26.6859 252 28.895V41.395C252 46.0894 255.806 49.895 260.5 49.895C265.194 49.895 269 46.0894 269 41.395V28.895C269 26.6859 270.791 24.895 273 24.895C275.209 24.895 277 26.6859 277 28.895V41.395C277 50.5077 269.613 57.895 260.5 57.895C251.387 57.895 244 50.5077 244 41.395V28.895Z" fill="#33109F"/>
<path d="M244 28.895C244 26.6859 245.791 24.895 248 24.895C250.209 24.895 252 26.6859 252 28.895V41.395C252 46.0894 255.806 49.895 260.5 49.895C265.194 49.895 269 46.0894 269 41.395V28.895C269 26.6859 270.791 24.895 273 24.895C275.209 24.895 277 26.6859 277 28.895V41.395C277 50.5077 269.613 57.895 260.5 57.895C251.387 57.895 244 50.5077 244 41.395V28.895Z" fill="url(#paint15_radial_3596_1018)"/>
<path d="M244 28.895C244 26.6859 245.791 24.895 248 24.895C250.209 24.895 252 26.6859 252 28.895V41.395C252 46.0894 255.806 49.895 260.5 49.895C265.194 49.895 269 46.0894 269 41.395V28.895C269 26.6859 270.791 24.895 273 24.895C275.209 24.895 277 26.6859 277 28.895V41.395C277 50.5077 269.613 57.895 260.5 57.895C251.387 57.895 244 50.5077 244 41.395V28.895Z" fill="url(#paint16_radial_3596_1018)" fill-opacity="0.6"/>
<path d="M244 28.895C244 26.6859 245.791 24.895 248 24.895C250.209 24.895 252 26.6859 252 28.895V41.395C252 46.0894 255.806 49.895 260.5 49.895C265.194 49.895 269 46.0894 269 41.395V28.895C269 26.6859 270.791 24.895 273 24.895C275.209 24.895 277 26.6859 277 28.895V41.395C277 50.5077 269.613 57.895 260.5 57.895C251.387 57.895 244 50.5077 244 41.395V28.895Z" fill="url(#paint17_radial_3596_1018)"/>
<path fill-rule="evenodd" clip-rule="evenodd" d="M106 15.895C106 13.6859 107.791 11.895 110 11.895C112.209 11.895 114 13.6859 114 15.895V24.895H122.5C131.613 24.895 139 32.2823 139 41.395C139 50.5077 131.613 57.895 122.5 57.895C113.387 57.895 106 50.5077 106 41.395V15.895ZM114 41.395C114 46.0894 117.806 49.895 122.5 49.895C127.194 49.895 131 46.0894 131 41.395C131 36.7006 127.194 32.895 122.5 32.895C117.806 32.895 114 36.7006 114 41.395Z" fill="#33109F"/>
<path fill-rule="evenodd" clip-rule="evenodd" d="M106 15.895C106 13.6859 107.791 11.895 110 11.895C112.209 11.895 114 13.6859 114 15.895V24.895H122.5C131.613 24.895 139 32.2823 139 41.395C139 50.5077 131.613 57.895 122.5 57.895C113.387 57.895 106 50.5077 106 41.395V15.895ZM114 41.395C114 46.0894 117.806 49.895 122.5 49.895C127.194 49.895 131 46.0894 131 41.395C131 36.7006 127.194 32.895 122.5 32.895C117.806 32.895 114 36.7006 114 41.395Z" fill="url(#paint18_radial_3596_1018)"/>
<path fill-rule="evenodd" clip-rule="evenodd" d="M106 15.895C106 13.6859 107.791 11.895 110 11.895C112.209 11.895 114 13.6859 114 15.895V24.895H122.5C131.613 24.895 139 32.2823 139 41.395C139 50.5077 131.613 57.895 122.5 57.895C113.387 57.895 106 50.5077 106 41.395V15.895ZM114 41.395C114 46.0894 117.806 49.895 122.5 49.895C127.194 49.895 131 46.0894 131 41.395C131 36.7006 127.194 32.895 122.5 32.895C117.806 32.895 114 36.7006 114 41.395Z" fill="url(#paint19_radial_3596_1018)" fill-opacity="0.6"/>
<path fill-rule="evenodd" clip-rule="evenodd" d="M106 15.895C106 13.6859 107.791 11.895 110 11.895C112.209 11.895 114 13.6859 114 15.895V24.895H122.5C131.613 24.895 139 32.2823 139 41.395C139 50.5077 131.613 57.895 122.5 57.895C113.387 57.895 106 50.5077 106 41.395V15.895ZM114 41.395C114 46.0894 117.806 49.895 122.5 49.895C127.194 49.895 131 46.0894 131 41.395C131 36.7006 127.194 32.895 122.5 32.895C117.806 32.895 114 36.7006 114 41.395Z" fill="url(#paint20_radial_3596_1018)"/>
<path d="M175 15.895C175 13.6859 176.791 11.895 179 11.895C181.209 11.895 183 13.6859 183 15.895V24.895H191C193.209 24.895 195 26.6859 195 28.895C195 31.1042 193.209 32.895 191 32.895H183V39.895C183 45.4179 187.477 49.895 193 49.895H199C201.209 49.895 203 51.6859 203 53.895C203 56.1042 201.209 57.895 199 57.895H191C182.163 57.895 175 50.7316 175 41.895V15.895Z" fill="#33109F"/>
<path d="M175 15.895C175 13.6859 176.791 11.895 179 11.895C181.209 11.895 183 13.6859 183 15.895V24.895H191C193.209 24.895 195 26.6859 195 28.895C195 31.1042 193.209 32.895 191 32.895H183V39.895C183 45.4179 187.477 49.895 193 49.895H199C201.209 49.895 203 51.6859 203 53.895C203 56.1042 201.209 57.895 199 57.895H191C182.163 57.895 175 50.7316 175 41.895V15.895Z" fill="url(#paint21_radial_3596_1018)"/>
<path d="M175 15.895C175 13.6859 176.791 11.895 179 11.895C181.209 11.895 183 13.6859 183 15.895V24.895H191C193.209 24.895 195 26.6859 195 28.895C195 31.1042 193.209 32.895 191 32.895H183V39.895C183 45.4179 187.477 49.895 193 49.895H199C201.209 49.895 203 51.6859 203 53.895C203 56.1042 201.209 57.895 199 57.895H191C182.163 57.895 175 50.7316 175 41.895V15.895Z" fill="url(#paint22_radial_3596_1018)" fill-opacity="0.6"/>
<path d="M175 15.895C175 13.6859 176.791 11.895 179 11.895C181.209 11.895 183 13.6859 183 15.895V24.895H191C193.209 24.895 195 26.6859 195 28.895C195 31.1042 193.209 32.895 191 32.895H183V39.895C183 45.4179 187.477 49.895 193 49.895H199C201.209 49.895 203 51.6859 203 53.895C203 56.1042 201.209 57.895 199 57.895H191C182.163 57.895 175 50.7316 175 41.895V15.895Z" fill="url(#paint23_radial_3596_1018)"/>
<defs>
<radialGradient id="paint0_radial_3596_1018" cx="0" cy="0" r="1" gradientUnits="userSpaceOnUse" gradientTransform="translate(272.529 28.3937) rotate(162.667) scale(172.536 400.684)">
<stop offset="0.130438" stop-color="#5DEAF4"/>
<stop offset="0.46428" stop-color="#43EAF6"/>
<stop offset="0.745056" stop-color="#6CB7FD" stop-opacity="0"/>
</radialGradient>
<radialGradient id="paint1_radial_3596_1018" cx="0" cy="0" r="1" gradientUnits="userSpaceOnUse" gradientTransform="translate(281.127 34.895) rotate(-163.277) scale(79.9338 68.2383)">
<stop stop-color="#40D7EE"/>
<stop offset="1" stop-color="#22A475" stop-opacity="0"/>
</radialGradient>
<radialGradient id="paint2_radial_3596_1018" cx="0" cy="0" r="1" gradientUnits="userSpaceOnUse" gradientTransform="translate(132.645 95.8955) rotate(-92.2615) scale(65.8313 59.32)">
<stop stop-color="#EA673E"/>
<stop offset="1" stop-color="#EA673E" stop-opacity="0"/>
</radialGradient>
<radialGradient id="paint3_radial_3596_1018" cx="0" cy="0" r="1" gradientUnits="userSpaceOnUse" gradientTransform="translate(272.529 28.3937) rotate(162.667) scale(172.536 400.684)">
<stop offset="0.130438" stop-color="#5DEAF4"/>
<stop offset="0.46428" stop-color="#43EAF6"/>
<stop offset="0.745056" stop-color="#6CB7FD" stop-opacity="0"/>
</radialGradient>
<radialGradient id="paint4_radial_3596_1018" cx="0" cy="0" r="1" gradientUnits="userSpaceOnUse" gradientTransform="translate(281.127 34.895) rotate(-163.277) scale(79.9338 68.2383)">
<stop stop-color="#40D7EE"/>
<stop offset="1" stop-color="#22A475" stop-opacity="0"/>
</radialGradient>
<radialGradient id="paint5_radial_3596_1018" cx="0" cy="0" r="1" gradientUnits="userSpaceOnUse" gradientTransform="translate(132.645 95.8955) rotate(-92.2615) scale(65.8313 59.32)">
<stop stop-color="#EA673E"/>
<stop offset="1" stop-color="#EA673E" stop-opacity="0"/>
</radialGradient>
<radialGradient id="paint6_radial_3596_1018" cx="0" cy="0" r="1" gradientUnits="userSpaceOnUse" gradientTransform="translate(272.529 28.3937) rotate(162.667) scale(172.536 400.684)">
<stop offset="0.130438" stop-color="#5DEAF4"/>
<stop offset="0.46428" stop-color="#43EAF6"/>
<stop offset="0.745056" stop-color="#6CB7FD" stop-opacity="0"/>
</radialGradient>
<radialGradient id="paint7_radial_3596_1018" cx="0" cy="0" r="1" gradientUnits="userSpaceOnUse" gradientTransform="translate(281.127 34.895) rotate(-163.277) scale(79.9338 68.2383)">
<stop stop-color="#40D7EE"/>
<stop offset="1" stop-color="#22A475" stop-opacity="0"/>
</radialGradient>
<radialGradient id="paint8_radial_3596_1018" cx="0" cy="0" r="1" gradientUnits="userSpaceOnUse" gradientTransform="translate(132.645 95.8955) rotate(-92.2615) scale(65.8313 59.32)">
<stop stop-color="#EA673E"/>
<stop offset="1" stop-color="#EA673E" stop-opacity="0"/>
</radialGradient>
<radialGradient id="paint9_radial_3596_1018" cx="0" cy="0" r="1" gradientUnits="userSpaceOnUse" gradientTransform="translate(272.529 28.3937) rotate(162.667) scale(172.536 400.684)">
<stop offset="0.130438" stop-color="#5DEAF4"/>
<stop offset="0.46428" stop-color="#43EAF6"/>
<stop offset="0.745056" stop-color="#6CB7FD" stop-opacity="0"/>
</radialGradient>
<radialGradient id="paint10_radial_3596_1018" cx="0" cy="0" r="1" gradientUnits="userSpaceOnUse" gradientTransform="translate(281.127 34.895) rotate(-163.277) scale(79.9338 68.2383)">
<stop stop-color="#40D7EE"/>
<stop offset="1" stop-color="#22A475" stop-opacity="0"/>
</radialGradient>
<radialGradient id="paint11_radial_3596_1018" cx="0" cy="0" r="1" gradientUnits="userSpaceOnUse" gradientTransform="translate(132.645 95.8955) rotate(-92.2615) scale(65.8313 59.32)">
<stop stop-color="#EA673E"/>
<stop offset="1" stop-color="#EA673E" stop-opacity="0"/>
</radialGradient>
<radialGradient id="paint12_radial_3596_1018" cx="0" cy="0" r="1" gradientUnits="userSpaceOnUse" gradientTransform="translate(272.529 28.3937) rotate(162.667) scale(172.536 400.684)">
<stop offset="0.130438" stop-color="#5DEAF4"/>
<stop offset="0.46428" stop-color="#43EAF6"/>
<stop offset="0.745056" stop-color="#6CB7FD" stop-opacity="0"/>
</radialGradient>
<radialGradient id="paint13_radial_3596_1018" cx="0" cy="0" r="1" gradientUnits="userSpaceOnUse" gradientTransform="translate(281.127 34.895) rotate(-163.277) scale(79.9338 68.2383)">
<stop stop-color="#40D7EE"/>
<stop offset="1" stop-color="#22A475" stop-opacity="0"/>
</radialGradient>
<radialGradient id="paint14_radial_3596_1018" cx="0" cy="0" r="1" gradientUnits="userSpaceOnUse" gradientTransform="translate(132.645 95.8955) rotate(-92.2615) scale(65.8313 59.32)">
<stop stop-color="#EA673E"/>
<stop offset="1" stop-color="#EA673E" stop-opacity="0"/>
</radialGradient>
<radialGradient id="paint15_radial_3596_1018" cx="0" cy="0" r="1" gradientUnits="userSpaceOnUse" gradientTransform="translate(272.529 28.3937) rotate(162.667) scale(172.536 400.684)">
<stop offset="0.130438" stop-color="#5DEAF4"/>
<stop offset="0.46428" stop-color="#43EAF6"/>
<stop offset="0.745056" stop-color="#6CB7FD" stop-opacity="0"/>
</radialGradient>
<radialGradient id="paint16_radial_3596_1018" cx="0" cy="0" r="1" gradientUnits="userSpaceOnUse" gradientTransform="translate(281.127 34.895) rotate(-163.277) scale(79.9338 68.2383)">
<stop stop-color="#40D7EE"/>
<stop offset="1" stop-color="#22A475" stop-opacity="0"/>
</radialGradient>
<radialGradient id="paint17_radial_3596_1018" cx="0" cy="0" r="1" gradientUnits="userSpaceOnUse" gradientTransform="translate(132.645 95.8955) rotate(-92.2615) scale(65.8313 59.32)">
<stop stop-color="#EA673E"/>
<stop offset="1" stop-color="#EA673E" stop-opacity="0"/>
</radialGradient>
<radialGradient id="paint18_radial_3596_1018" cx="0" cy="0" r="1" gradientUnits="userSpaceOnUse" gradientTransform="translate(272.529 28.3937) rotate(162.667) scale(172.536 400.684)">
<stop offset="0.130438" stop-color="#5DEAF4"/>
<stop offset="0.46428" stop-color="#43EAF6"/>
<stop offset="0.745056" stop-color="#6CB7FD" stop-opacity="0"/>
</radialGradient>
<radialGradient id="paint19_radial_3596_1018" cx="0" cy="0" r="1" gradientUnits="userSpaceOnUse" gradientTransform="translate(281.127 34.895) rotate(-163.277) scale(79.9338 68.2383)">
<stop stop-color="#40D7EE"/>
<stop offset="1" stop-color="#22A475" stop-opacity="0"/>
</radialGradient>
<radialGradient id="paint20_radial_3596_1018" cx="0" cy="0" r="1" gradientUnits="userSpaceOnUse" gradientTransform="translate(132.645 95.8955) rotate(-92.2615) scale(65.8313 59.32)">
<stop stop-color="#EA673E"/>
<stop offset="1" stop-color="#EA673E" stop-opacity="0"/>
</radialGradient>
<radialGradient id="paint21_radial_3596_1018" cx="0" cy="0" r="1" gradientUnits="userSpaceOnUse" gradientTransform="translate(272.529 28.3937) rotate(162.667) scale(172.536 400.684)">
<stop offset="0.130438" stop-color="#5DEAF4"/>
<stop offset="0.46428" stop-color="#43EAF6"/>
<stop offset="0.745056" stop-color="#6CB7FD" stop-opacity="0"/>
</radialGradient>
<radialGradient id="paint22_radial_3596_1018" cx="0" cy="0" r="1" gradientUnits="userSpaceOnUse" gradientTransform="translate(281.127 34.895) rotate(-163.277) scale(79.9338 68.2383)">
<stop stop-color="#40D7EE"/>
<stop offset="1" stop-color="#22A475" stop-opacity="0"/>
</radialGradient>
<radialGradient id="paint23_radial_3596_1018" cx="0" cy="0" r="1" gradientUnits="userSpaceOnUse" gradientTransform="translate(132.645 95.8955) rotate(-92.2615) scale(65.8313 59.32)">
<stop stop-color="#EA673E"/>
<stop offset="1" stop-color="#EA673E" stop-opacity="0"/>
</radialGradient>
</defs>
</svg>
